<svg width="22" height="16" viewBox="0 0 22 16" fill="none" xmlns="http://www.w3.org/2000/svg">
<rect width="22" height="16" rx="2" fill="white"/>
<mask id="mask0_324_35288" style="mask-type:luminance" maskUnits="userSpaceOnUse" x="0" y="0" width="22" height="16">
<rect width="22" height="16" rx="2" fill="white"/>
</mask>
<g mask="url(#mask0_324_35288)">
<rect width="22" height="16" fill="#0A17A7"/>
<path d="M24.1791 0.235352L16.7562 5.33301H22.0004V10.667H16.7562L24.1791 15.7646L23.0072 17.5332L13.6195 11.085V17.0664H8.38123V11.085L-1.00745 17.5332L-2.17932 15.7646L5.24353 10.667H0.000366211V5.33301H5.24353L-2.17932 0.235352L-1.00745 -1.5332L8.38123 4.91406V-1.06641H13.6195V4.91406L23.0072 -1.5332L24.1791 0.235352Z" fill="white"/>
<path d="M14.6677 5.06566L24.6191 -1.6001" stroke="#DB1F35" stroke-width="0.666667" stroke-linecap="round"/>
<path d="M15.7244 10.9578L24.6452 17.0801" stroke="#DB1F35" stroke-width="0.666667" stroke-linecap="round"/>
<path d="M6.29009 5.04824L-3.01514 -1.33691" stroke="#DB1F35" stroke-width="0.666667" stroke-linecap="round"/>
<path d="M7.29934 10.8837L-3.01514 17.8481" stroke="#DB1F35" stroke-width="0.666667" stroke-linecap="round"/>
<path fill-rule="evenodd" clip-rule="evenodd" d="M0 9.6H9.42857V16H12.5714V9.6H22V6.4H12.5714V0H9.42857V6.4H0V9.6Z" fill="#E6273E"/>
</g>
</svg>
