<svg width="22" height="16" viewBox="0 0 22 16" fill="none" xmlns="http://www.w3.org/2000/svg">
<rect x="0.25" y="0.25" width="21.5" height="15.5" rx="1.75" fill="white" stroke="#F5F5F5" stroke-width="0.5"/>
<mask id="mask0_324_35304" style="mask-type:luminance" maskUnits="userSpaceOnUse" x="0" y="0" width="22" height="16">
<rect x="0.25" y="0.25" width="21.5" height="15.5" rx="1.75" fill="white" stroke="white" stroke-width="0.5"/>
</mask>
<g mask="url(#mask0_324_35304)">
<path fill-rule="evenodd" clip-rule="evenodd" d="M11 11.7333C13.0251 11.7333 14.6667 10.0618 14.6667 7.99993C14.6667 5.93807 13.0251 4.2666 11 4.2666C8.975 4.2666 7.33337 5.93807 7.33337 7.99993C7.33337 10.0618 8.975 11.7333 11 11.7333Z" fill="#E01B41"/>
<mask id="mask1_324_35304" style="mask-type:luminance" maskUnits="userSpaceOnUse" x="7" y="4" width="8" height="8">
<path fill-rule="evenodd" clip-rule="evenodd" d="M11 11.7333C13.0251 11.7333 14.6667 10.0618 14.6667 7.99993C14.6667 5.93807 13.0251 4.2666 11 4.2666C8.975 4.2666 7.33337 5.93807 7.33337 7.99993C7.33337 10.0618 8.975 11.7333 11 11.7333Z" fill="white"/>
</mask>
<g mask="url(#mask1_324_35304)">
<path fill-rule="evenodd" clip-rule="evenodd" d="M7.33341 8.5335C8.38103 9.5335 9.95245 10.1335 11.0001 8.5335C12.0477 6.9335 14.1429 6.9335 14.6667 8.5335C15.1905 10.1335 14.6667 11.7335 14.6667 11.7335H7.33341C7.33341 11.7335 6.28579 7.5335 7.33341 8.5335Z" fill="#0E4B9C"/>
</g>
<path opacity="0.75" d="M4.03001 10.2502C4.18867 10.1571 4.39041 10.2113 4.48118 10.3713L5.72435 12.5627C5.81495 12.7228 5.7599 12.9285 5.6013 13.0217L5.26829 13.217C5.10968 13.3101 4.90793 13.2559 4.81712 13.096L3.57396 10.9045C3.48325 10.7444 3.53837 10.5388 3.697 10.4456L4.03001 10.2502ZM17.5183 10.3713C17.6091 10.2112 17.8117 10.157 17.9704 10.2502L18.3025 10.4456C18.4612 10.5389 18.5163 10.7444 18.4255 10.9045L17.1833 13.096C17.0925 13.2561 16.8899 13.3103 16.7312 13.217L16.3992 13.0217C16.2405 12.9284 16.1853 12.7229 16.2761 12.5627L17.5183 10.3713ZM5.39036 9.45044C5.54907 9.35715 5.7517 9.4114 5.84251 9.57154L7.0847 11.7629C7.17537 11.9231 7.1203 12.1287 6.96165 12.2219L6.62962 12.4172C6.47094 12.5105 6.2683 12.4562 6.17747 12.2961L4.93528 10.1047C4.84448 9.9446 4.89963 9.73905 5.05833 9.64575L5.39036 9.45044ZM16.1579 9.57154C16.2487 9.41142 16.4504 9.35722 16.6091 9.45044L16.9421 9.64575C17.1007 9.7391 17.1559 9.94466 17.0652 10.1047L15.822 12.2961C15.7312 12.4559 15.5294 12.5102 15.3708 12.4172L15.0378 12.2219C14.8792 12.1287 14.8243 11.923 14.9148 11.7629L16.1579 9.57154ZM6.17747 3.70435C6.2683 3.54426 6.47094 3.48997 6.62962 3.58325L6.96165 3.77857C7.12031 3.87183 7.17538 4.07743 7.0847 4.23755L5.84251 6.42896C5.7517 6.5891 5.54907 6.64335 5.39036 6.55005L5.05833 6.35474C4.89963 6.26145 4.84448 6.0559 4.93528 5.89576L6.17747 3.70435ZM15.3708 3.58325C15.5294 3.49032 15.7312 3.54454 15.822 3.70435L17.0652 5.89576C17.1559 6.05583 17.1007 6.2614 16.9421 6.35474L16.6091 6.55005C16.4504 6.64327 16.2487 6.58907 16.1579 6.42896L14.9148 4.23755C14.8243 4.07746 14.8792 3.87179 15.0378 3.77857L15.3708 3.58325ZM4.81712 2.90454C4.90792 2.7446 5.10967 2.69038 5.26829 2.78345L5.6013 2.97876C5.7599 3.07202 5.81496 3.27765 5.72435 3.43775L4.48118 5.62915C4.39041 5.78918 4.18867 5.84335 4.03001 5.75025L3.697 5.55493C3.53837 5.46165 3.48326 5.25606 3.57396 5.09595L4.81712 2.90454ZM16.7312 2.78345C16.8899 2.69016 17.0925 2.7444 17.1833 2.90454L18.4255 5.09595C18.5163 5.25609 18.4612 5.46164 18.3025 5.55493L17.9704 5.75025C17.8117 5.84354 17.6091 5.78929 17.5183 5.62915L16.2761 3.43775C16.1853 3.27761 16.2405 3.07205 16.3992 2.97876L16.7312 2.78345Z" fill="#262626"/>
</g>
</svg>
