<svg width="22" height="16" viewBox="0 0 22 16" fill="none" xmlns="http://www.w3.org/2000/svg">
<rect width="22" height="16" rx="2" fill="white"/>
<mask id="mask0_324_35324" style="mask-type:luminance" maskUnits="userSpaceOnUse" x="0" y="0" width="22" height="16">
<rect width="22" height="16" rx="2" fill="white"/>
</mask>
<g mask="url(#mask0_324_35324)">
<rect width="22" height="16" fill="#F1361D"/>
<path d="M9.4054 8.91113L9.8302 9.56738L9.05774 9.57715L8.41321 10.0088L8.40344 9.22266L7.97961 8.56641L8.7511 8.55664L9.39661 8.125L9.4054 8.91113ZM10.5675 6.4082L11.3341 6.32129L10.9923 7.02637L11.0773 7.80762L10.3849 7.45898L9.61829 7.54492L9.96008 6.84082L9.87512 6.05957L10.5675 6.4082ZM10.9825 4.12891L11.3829 4.7998L10.6115 4.78223L9.95227 5.19043L9.96985 4.40527L9.56848 3.7334L10.3409 3.75195L11.0001 3.34277L10.9825 4.12891ZM9.13391 1.6543L9.89563 1.78613L9.37512 2.36719L9.24622 3.14258L8.67493 2.61328L7.91418 2.48047L8.43372 1.89941L8.5636 1.125L9.13391 1.6543Z" fill="#FFDC42"/>
<path fill-rule="evenodd" clip-rule="evenodd" d="M5.23807 6.5813L3.39075 7.92216L4.07235 5.71895L2.24904 4.34445L4.51762 4.32365L5.23807 2.1333L5.95853 4.32365L8.22711 4.34445L6.4038 5.71895L7.0854 7.92216L5.23807 6.5813Z" fill="#FFDC42"/>
</g>
</svg>
