<svg width="266" height="266" viewBox="0 0 266 266" fill="none" xmlns="http://www.w3.org/2000/svg">
<g clip-path="url(#clip0_4301_31554)">
<rect width="266" height="266" rx="133" fill="#00C9FF"/>
<path d="M233.115 -10C262.939 -10 287.115 14.1766 287.115 44C287.115 67.696 271.852 87.8258 250.621 95.0977L268.311 150.795L262.115 152.763L255.921 154.73L237.838 97.7949C237.766 97.8012 237.694 97.8075 237.622 97.8135L243.601 216.363L237.108 216.69L230.617 217.018L224.581 97.3281C224.073 97.2474 223.567 97.1602 223.063 97.0654L196.547 239.192L183.768 236.808L210.582 93.0869C210.109 92.8696 209.641 92.6454 209.176 92.415L140.375 233.917L134.529 231.074L128.684 228.232L198.222 85.2129C198.193 85.1883 198.164 85.1634 198.135 85.1387L77.5176 213.681L72.7773 209.232L68.0371 204.785L189.294 75.5605C188.987 75.1354 188.686 74.7058 188.392 74.2715L44.2715 153.662L38 142.275L182.443 62.707C182.274 62.2486 182.11 61.7874 181.953 61.3232L41.293 87.2363L40.1152 80.8447L38.9375 74.4521L179.309 48.5928C179.269 48.1195 179.235 47.6446 179.207 47.168L70.4971 34.5605L71.2461 28.1035L71.9951 21.6475L180.008 34.1748C180.095 33.7013 180.188 33.2299 180.287 32.7607L121.787 7.98535L126.857 -3.98535L184.516 20.4336C193.268 2.4184 211.741 -10 233.115 -10Z" fill="#FFCC00"/>
<path d="M52.4102 56.2541V210.5H67.1002V195.81H199.311V210.5H214.001V92.9793C214.001 76.7468 200.853 63.5992 184.621 63.5992H118.516V100.324H67.1002V56.2541M92.8079 56.2541C87.9378 56.2541 83.2672 58.1887 79.8236 61.6324C76.3799 65.0761 74.4453 69.7467 74.4453 74.6167C74.4453 79.4868 76.3799 84.1574 79.8236 87.601C83.2672 91.0447 87.9378 92.9793 92.8079 92.9793C95.2193 92.9793 97.6071 92.5044 99.8349 91.5816C102.063 90.6588 104.087 89.3062 105.792 87.601C107.497 85.8959 108.85 83.8716 109.773 81.6438C110.696 79.4159 111.17 77.0281 111.17 74.6167C111.17 69.7467 109.236 65.0761 105.792 61.6324C102.349 58.1887 97.6779 56.2541 92.8079 56.2541ZM67.1002 122.359H199.311V141.163C194.977 138.592 189.983 137.05 184.621 137.05H118.516V173.775H67.1002M92.8079 129.705C87.9378 129.705 83.2672 131.639 79.8236 135.083C76.3799 138.526 74.4453 143.197 74.4453 148.067C74.4453 152.937 76.3799 157.608 79.8236 161.051C83.2672 164.495 87.9378 166.43 92.8079 166.43C97.6779 166.43 102.349 164.495 105.792 161.051C109.236 157.608 111.17 152.937 111.17 148.067C111.17 143.197 109.236 138.526 105.792 135.083C102.349 131.639 97.6779 129.705 92.8079 129.705Z" fill="black"/>
<path d="M91 60.7247L91 83.7887C91 84.1558 90.7463 84.4909 90.3801 84.4646C89.0083 84.3659 87.5784 82.9554 86.6494 81.7465C86.1961 81.1568 86 80.4211 86 79.6773L86 65.5917C86 65.2069 86.0518 64.8225 86.1778 64.459C87.2651 61.3202 89.0765 60.2562 90.2924 60.0429C90.692 59.9728 91 60.319 91 60.7247Z" fill="white"/>
<path d="M91 134.725L91 157.789C91 158.156 90.7463 158.491 90.3801 158.465C89.0083 158.366 87.5784 156.955 86.6494 155.747C86.1961 155.157 86 154.421 86 153.677L86 139.592C86 139.207 86.0518 138.823 86.1778 138.459C87.2651 135.32 89.0765 134.256 90.2924 134.043C90.692 133.973 91 134.319 91 134.725Z" fill="white"/>
</g>
<rect x="2.5" y="2.5" width="261" height="261" rx="130.5" stroke="black" stroke-width="5"/>
<defs>
<clipPath id="clip0_4301_31554">
<rect width="266" height="266" rx="133" fill="white"/>
</clipPath>
</defs>
</svg>
