<svg width="16" height="16" viewBox="0 0 16 16" fill="none" xmlns="http://www.w3.org/2000/svg">
<path d="M2.85709 7.07737H11.0732L9.10789 4.93766C9.02602 4.85158 8.96073 4.74861 8.91581 4.63477C8.87089 4.52092 8.84725 4.39847 8.84626 4.27457C8.84527 4.15067 8.86695 4.02779 8.91005 3.91311C8.95315 3.79843 9.01679 3.69424 9.09726 3.60663C9.17774 3.51901 9.27343 3.44972 9.37877 3.4028C9.4841 3.35588 9.59696 3.33227 9.71077 3.33335C9.82457 3.33442 9.93704 3.36017 10.0416 3.40907C10.1462 3.45798 10.2408 3.52907 10.3198 3.61819L13.7482 7.35078C13.828 7.43746 13.8913 7.54043 13.9346 7.6538C13.9778 7.76717 14 7.88871 14 8.01145C14 8.13419 13.9778 8.25572 13.9346 8.36909C13.8913 8.48246 13.828 8.58543 13.7482 8.67211L10.3198 12.4047C10.1582 12.5747 9.94166 12.6687 9.71694 12.6666C9.49221 12.6645 9.27724 12.5663 9.11833 12.3933C8.95941 12.2203 8.86927 11.9863 8.86732 11.7416C8.86537 11.4969 8.95176 11.2612 9.10789 11.0852L11.0732 8.94366H2.85709C2.62978 8.94366 2.41177 8.84535 2.25104 8.67035C2.0903 8.49535 2 8.258 2 8.01051C2 7.76303 2.0903 7.52568 2.25104 7.35068C2.41177 7.17568 2.62978 7.07737 2.85709 7.07737Z" fill="#57D5FF"/>
</svg>
