<svg width="43" height="43" viewBox="0 0 43 43" fill="none" xmlns="http://www.w3.org/2000/svg">
<path d="M25.0369 30.1625C25.0369 30.0086 25.0066 29.8562 24.9477 29.714C24.8888 29.5718 24.8025 29.4426 24.6937 29.3337C24.5848 29.2249 24.4556 29.1386 24.3134 29.0797C24.1712 29.0208 24.0188 28.9905 23.8649 28.9905L17.4134 28.9905L23.6991 22.7048C28.1838 18.2201 28.1838 10.948 23.6991 6.46339L23.3677 6.13194C23.1479 5.91217 22.8499 5.7887 22.5391 5.7887C22.2283 5.7887 21.9302 5.91217 21.7104 6.13194C21.4906 6.35171 21.3672 6.64978 21.3672 6.96058C21.3672 7.27138 21.4906 7.56945 21.7104 7.78922L22.0419 8.12067C22.8907 8.96946 23.5639 9.97711 24.0233 11.0861C24.4827 12.1951 24.7191 13.3837 24.7191 14.5841C24.7191 15.7844 24.4827 16.973 24.0233 18.082C23.5639 19.191 22.8907 20.1987 22.0419 21.0475L15.7561 27.3332L15.7561 20.8817C15.7561 20.5709 15.6326 20.2728 15.4129 20.053C15.1931 19.8332 14.8949 19.7097 14.5841 19.7097C14.2733 19.7097 13.9751 19.8332 13.7554 20.053C13.5356 20.2728 13.4121 20.5709 13.4121 20.8817L13.4121 30.1625C13.412 30.3164 13.4424 30.4688 13.5012 30.6111C13.5601 30.7533 13.6465 30.8825 13.7553 30.9913C13.8641 31.1001 13.9934 31.1865 14.1356 31.2454C14.2778 31.3043 14.4302 31.3346 14.5841 31.3345L23.8649 31.3345C24.0188 31.3346 24.1712 31.3043 24.3134 31.2454C24.4556 31.1865 24.5848 31.1001 24.6937 30.9913C24.8025 30.8825 24.8888 30.7533 24.9477 30.6111C25.0066 30.4688 25.0369 30.3164 25.0369 30.1625Z" fill="white"/>
</svg>
