<svg width="24" height="24" viewBox="0 0 24 24" fill="none" xmlns="http://www.w3.org/2000/svg">
<path d="M11.5 21.4501V19.989C9.41672 19.7937 7.69672 19.0177 6.34005 17.661C4.98272 16.3037 4.20672 14.5834 4.01205 12.5H2.55005V11.5H4.01205C4.20672 9.41672 4.98272 7.69672 6.34005 6.34005C7.69738 4.98338 9.41738 4.20738 11.5 4.01205V2.55005H12.5V4.01205C14.5834 4.20672 16.3034 4.98272 17.66 6.34005C19.0167 7.69738 19.7931 9.41738 19.989 11.5H21.4501V12.5H19.989C19.7937 14.5834 19.0177 16.3034 17.661 17.66C16.3037 19.0174 14.5834 19.7937 12.5 19.989V21.4501H11.5ZM12 19C13.9334 19 15.5834 18.3167 16.95 16.95C18.3167 15.5834 19 13.9334 19 12C19 10.0667 18.3167 8.41672 16.95 7.05005C15.5834 5.68338 13.9334 5.00005 12 5.00005C10.0667 5.00005 8.41672 5.68338 7.05005 7.05005C5.68338 8.41672 5.00005 10.0667 5.00005 12C5.00005 13.9334 5.68338 15.5834 7.05005 16.95C8.41672 18.3167 10.0667 19 12 19ZM12 15C11.1754 15 10.469 14.7064 9.88105 14.119C9.29305 13.5317 8.99938 12.8254 9.00005 12C9.00072 11.1747 9.29438 10.4684 9.88105 9.88105C10.4677 9.29372 11.174 9.00005 12 9.00005C12.826 9.00005 13.5324 9.29372 14.119 9.88105C14.7057 10.4684 14.9994 11.1747 15 12C15.0007 12.8254 14.707 13.5317 14.119 14.119C13.531 14.7064 12.8247 15 12 15Z" fill="#57D5FF"/>
</svg>
