<svg width="16" height="16" viewBox="0 0 16 16" fill="none" xmlns="http://www.w3.org/2000/svg">
<path d="M2.85709 7.07706H11.0732L9.10789 4.93736C9.02602 4.85128 8.96073 4.74831 8.91581 4.63446C8.87089 4.52061 8.84725 4.39817 8.84626 4.27426C8.84527 4.15036 8.86695 4.02748 8.91005 3.9128C8.95315 3.79812 9.01679 3.69394 9.09726 3.60632C9.17774 3.5187 9.27343 3.44942 9.37877 3.4025C9.4841 3.35558 9.59696 3.33197 9.71077 3.33304C9.82457 3.33412 9.93704 3.35986 10.0416 3.40877C10.1462 3.45767 10.2408 3.52876 10.3198 3.61789L13.7482 7.35047C13.828 7.43715 13.8913 7.54013 13.9346 7.6535C13.9778 7.76687 14 7.8884 14 8.01114C14 8.13388 13.9778 8.25542 13.9346 8.36879C13.8913 8.48215 13.828 8.58513 13.7482 8.67181L10.3198 12.4044C10.1582 12.5744 9.94166 12.6684 9.71694 12.6663C9.49221 12.6642 9.27724 12.566 9.11833 12.393C8.95941 12.22 8.86927 11.986 8.86732 11.7413C8.86537 11.4966 8.95176 11.2609 9.10789 11.0849L11.0732 8.94336H2.85709C2.62978 8.94336 2.41177 8.84504 2.25104 8.67004C2.0903 8.49504 2 8.25769 2 8.01021C2 7.76272 2.0903 7.52537 2.25104 7.35037C2.41177 7.17538 2.62978 7.07706 2.85709 7.07706Z" fill="white"/>
</svg>
