<svg width="24" height="24" viewBox="0 0 24 24" fill="none" xmlns="http://www.w3.org/2000/svg">
<path d="M15.2201 18.7199C15.0876 18.8621 15.0154 19.0501 15.0189 19.2444C15.0223 19.4387 15.101 19.6241 15.2384 19.7615C15.3758 19.8989 15.5612 19.9777 15.7555 19.9811C15.9498 19.9845 16.1379 19.9124 16.2801 19.7799L21.7801 14.2799C21.9205 14.1393 21.9994 13.9487 21.9994 13.7499C21.9994 13.5512 21.9205 13.3605 21.7801 13.2199L16.2801 7.71991C16.1379 7.58743 15.9498 7.51531 15.7555 7.51874C15.5612 7.52216 15.3758 7.60088 15.2384 7.73829C15.101 7.8757 15.0223 8.06109 15.0189 8.25539C15.0154 8.44969 15.0876 8.63773 15.2201 8.77991L19.4391 12.9999L11.7501 12.9999C7.19355 12.9999 3.50005 9.30641 3.50005 4.74991C3.50005 4.551 3.42103 4.36023 3.28038 4.21958C3.13973 4.07893 2.94896 3.99991 2.75005 3.99991C2.55114 3.99991 2.36037 4.07893 2.21972 4.21958C2.07907 4.36023 2.00005 4.551 2.00005 4.74991C2.00005 10.1349 6.36505 14.4999 11.7501 14.4999L19.4396 14.4999L15.2201 18.7199Z" fill="white"/>
</svg>
