<svg width="40" height="40" viewBox="0 0 40 40" fill="none" xmlns="http://www.w3.org/2000/svg">
<rect width="40" height="40" rx="20" fill="white"/>
<g clip-path="url(#clip0_1402_9230)">
<path d="M27.16 23.5863C26.8575 24.2851 26.4995 24.9283 26.0847 25.5196C25.5193 26.3257 25.0563 26.8838 24.6996 27.1936C24.1465 27.7022 23.5539 27.9627 22.9194 27.9775C22.4638 27.9775 21.9145 27.8479 21.275 27.585C20.6334 27.3232 20.0438 27.1936 19.5047 27.1936C18.9392 27.1936 18.3328 27.3232 17.6842 27.585C17.0346 27.8479 16.5113 27.985 16.1112 27.9985C15.5027 28.0245 14.8962 27.7566 14.2907 27.1936C13.9043 26.8566 13.421 26.2788 12.842 25.4603C12.2208 24.5863 11.7101 23.5727 11.31 22.4172C10.8815 21.1691 10.6667 19.9605 10.6667 18.7904C10.6667 17.4501 10.9563 16.2941 11.5364 15.3253C11.9923 14.5472 12.5988 13.9334 13.3579 13.4828C14.1171 13.0322 14.9373 12.8026 15.8206 12.7879C16.3039 12.7879 16.9377 12.9374 17.7253 13.2312C18.5107 13.526 19.015 13.6755 19.2361 13.6755C19.4015 13.6755 19.9617 13.5007 20.9114 13.1522C21.8095 12.829 22.5675 12.6952 23.1885 12.7479C24.8712 12.8837 26.1353 13.547 26.976 14.742C25.4711 15.6538 24.7267 16.931 24.7415 18.5693C24.7551 19.8454 25.2181 20.9074 26.1279 21.7506C26.5402 22.1419 27.0007 22.4444 27.513 22.6592C27.4019 22.9814 27.2847 23.29 27.16 23.5863ZM23.3008 8.40036C23.3008 9.40059 22.9354 10.3345 22.207 11.1989C21.3281 12.2265 20.2649 12.8203 19.112 12.7266C19.0973 12.6067 19.0887 12.4804 19.0887 12.3476C19.0887 11.3874 19.5068 10.3598 20.2491 9.51958C20.6197 9.09416 21.091 8.74043 21.6626 8.45826C22.233 8.18029 22.7725 8.02657 23.2798 8.00024C23.2947 8.13396 23.3008 8.26768 23.3008 8.40035V8.40036Z" fill="#111928"/>
</g>
<defs>
<clipPath id="clip0_1402_9230">
<rect width="20" height="20" fill="white" transform="translate(9 8)"/>
</clipPath>
</defs>
</svg>
