<svg width="24" height="24" viewBox="0 0 24 24" fill="none" xmlns="http://www.w3.org/2000/svg">
<path d="M17.1429 21.9994C16.9425 21.9995 16.7484 21.9178 16.5943 21.7684L12 17.2995L7.40571 21.7684C7.28051 21.89 7.12818 21.9675 6.96657 21.9918C6.80496 22.0161 6.64077 21.9861 6.49325 21.9054C6.34572 21.8247 6.22096 21.6966 6.1336 21.5362C6.04624 21.3757 5.9999 21.1895 6 20.9994V3.99994C6 3.46952 6.18061 2.96083 6.5021 2.58577C6.82359 2.21071 7.25963 2 7.71429 2H16.2857C16.7404 2 17.1764 2.21071 17.4979 2.58577C17.8194 2.96083 18 3.46952 18 3.99994V20.9994C17.9999 21.1894 17.9534 21.3754 17.866 21.5357C17.7785 21.6959 17.6538 21.8238 17.5063 21.9044C17.3927 21.9671 17.2685 21.9995 17.1429 21.9994Z" fill="white"/>
</svg>
