<svg width="24" height="24" viewBox="0 0 24 24" fill="none" xmlns="http://www.w3.org/2000/svg">
<path d="M17.1429 20.9994C16.9425 20.9996 16.7484 20.926 16.5943 20.7915L12 16.7696L7.40571 20.7915C7.28051 20.901 7.12818 20.9708 6.96657 20.9926C6.80496 21.0145 6.64077 20.9875 6.49325 20.9149C6.34572 20.8422 6.22096 20.727 6.1336 20.5825C6.04624 20.4381 5.9999 20.2705 6 20.0995V4.79994C6 4.32257 6.18061 3.86475 6.5021 3.52719C6.82359 3.18964 7.25963 3 7.71429 3H16.2857C16.7404 3 17.1764 3.18964 17.4979 3.52719C17.8194 3.86475 18 4.32257 18 4.79994V20.0995C17.9999 20.2704 17.9534 20.4379 17.866 20.5821C17.7785 20.7263 17.6538 20.8414 17.5063 20.9139C17.3927 20.9704 17.2685 20.9996 17.1429 20.9994ZM12 14.6996C12.2004 14.6995 12.3945 14.773 12.5486 14.9075L16.2857 18.178V4.79994H7.71429V18.178L11.4514 14.9075C11.6055 14.773 11.7996 14.6995 12 14.6996Z" fill="white"/>
</svg>
