<svg width="22" height="22" viewBox="0 0 22 22" fill="none" xmlns="http://www.w3.org/2000/svg">
<path d="M0.916687 1.83331V21.0833H2.75002V19.25H19.25V21.0833H21.0834V6.41665C21.0834 4.39081 19.4425 2.74998 17.4167 2.74998H9.16669V7.33331H2.75002V1.83331M5.95835 1.83331C5.35057 1.83331 4.76767 2.07476 4.3379 2.50453C3.90813 2.9343 3.66669 3.51719 3.66669 4.12498C3.66669 4.73277 3.90813 5.31566 4.3379 5.74543C4.76767 6.1752 5.35057 6.41665 5.95835 6.41665C6.2593 6.41665 6.5573 6.35737 6.83534 6.2422C7.11337 6.12704 7.36601 5.95823 7.57881 5.74543C7.79161 5.53263 7.96041 5.28 8.07558 5.00196C8.19075 4.72392 8.25002 4.42593 8.25002 4.12498C8.25002 3.51719 8.00858 2.9343 7.57881 2.50453C7.14904 2.07476 6.56614 1.83331 5.95835 1.83331ZM2.75002 10.0833H19.25V12.43C18.7092 12.1091 18.0859 11.9166 17.4167 11.9166H9.16669V16.5H2.75002M5.95835 11C5.35057 11 4.76767 11.2414 4.3379 11.6712C3.90813 12.101 3.66669 12.6839 3.66669 13.2916C3.66669 13.8994 3.90813 14.4823 4.3379 14.9121C4.76767 15.3419 5.35057 15.5833 5.95835 15.5833C6.56614 15.5833 7.14904 15.3419 7.57881 14.9121C8.00858 14.4823 8.25002 13.8994 8.25002 13.2916C8.25002 12.6839 8.00858 12.101 7.57881 11.6712C7.14904 11.2414 6.56614 11 5.95835 11Z" fill="#FFE08B"/>
</svg>
