<svg width="18" height="18" viewBox="0 0 18 18" fill="none" xmlns="http://www.w3.org/2000/svg">
<circle cx="9" cy="9" r="6" fill="black"/>
<path d="M8.99902 0.5C11.1119 0.50232 13.1434 1.29049 14.7021 2.70215L15.0078 2.99219C16.5018 4.48619 17.3829 6.4789 17.4893 8.5791L17.5 9.00098C17.4998 10.5766 17.0614 12.1189 16.2373 13.457L16.0674 13.7227C15.1917 15.0331 13.9701 16.0727 12.541 16.7275L12.2529 16.8525C10.7968 17.4557 9.20346 17.642 7.65137 17.3926L7.3418 17.3369C5.79584 17.0294 4.36782 16.2983 3.21582 15.2285L2.98926 15.0107C1.87481 13.8963 1.09401 12.4952 0.730469 10.9658L0.663086 10.6582C0.355622 9.11238 0.484782 7.51364 1.03223 6.04004L1.14746 5.74707C1.75063 4.29102 2.74571 3.03338 4.01953 2.1123L4.27734 1.93262C5.67489 0.998807 7.31822 0.500194 8.99902 0.5ZM11.7012 5.81152C11.3342 5.80833 10.9808 5.94921 10.7168 6.2041L11.0635 6.56348L10.7158 6.2041L10.71 6.20996L8.09961 8.81934L7.29004 8.00977L7.2832 8.00391L7.18066 7.91406C6.96663 7.74438 6.70761 7.64048 6.43555 7.61621L6.29883 7.61133C5.93178 7.61454 5.58084 7.76193 5.32129 8.02148C5.06178 8.28105 4.91432 8.632 4.91113 8.99902C4.90837 9.32025 5.01599 9.63127 5.21387 9.88086L5.30371 9.9834L7.11035 11.79C7.37278 12.0523 7.72859 12.2001 8.09961 12.2002C8.4245 12.2002 8.73818 12.0869 8.9873 11.8828L9.08984 11.79L12.6895 8.18945L12.6963 8.18359C12.9193 7.95263 13.0546 7.65298 13.083 7.33594L13.0889 7.19922C13.0857 6.83215 12.9383 6.48028 12.6787 6.2207C12.4516 5.99376 12.1544 5.8532 11.8379 5.81934L11.7012 5.81152Z" fill="#57D5FF" stroke="black"/>
</svg>
