<svg width="40" height="40" viewBox="0 0 40 40" fill="none" xmlns="http://www.w3.org/2000/svg">
<rect width="40" height="40" rx="20" fill="#1F2A37"/>
<path d="M20 8C17.6266 8 15.3066 8.70379 13.3332 10.0224C11.3598 11.3409 9.8217 13.2151 8.91345 15.4078C8.0052 17.6005 7.76756 20.0133 8.23058 22.3411C8.6936 24.6689 9.83649 26.807 11.5147 28.4853C13.193 30.1635 15.3311 31.3064 17.6589 31.7694C19.9867 32.2324 22.3995 31.9948 24.5922 31.0865C26.7849 30.1783 28.6591 28.6402 29.9776 26.6668C31.2962 24.6934 32 22.3734 32 20C31.9965 16.8185 30.7311 13.7683 28.4814 11.5186C26.2317 9.2689 23.1815 8.00349 20 8ZM24.4484 22.7516C24.563 22.8623 24.6544 22.9947 24.7173 23.1411C24.7802 23.2875 24.8133 23.445 24.8147 23.6043C24.8161 23.7636 24.7857 23.9217 24.7254 24.0691C24.6651 24.2166 24.5759 24.3506 24.4633 24.4633C24.3506 24.5759 24.2166 24.665 24.0691 24.7254C23.9217 24.7857 23.7637 24.8161 23.6043 24.8147C23.445 24.8133 23.2875 24.7802 23.1411 24.7173C22.9947 24.6544 22.8623 24.563 22.7516 24.4484L20 21.6968L17.2484 24.4484C17.0221 24.667 16.719 24.7879 16.4043 24.7852C16.0897 24.7825 15.7887 24.6563 15.5662 24.4338C15.3437 24.2113 15.2175 23.9103 15.2148 23.5957C15.2121 23.281 15.333 22.9779 15.5516 22.7516L18.3032 20L15.5516 17.2484C15.333 17.0221 15.2121 16.719 15.2148 16.4043C15.2175 16.0897 15.3437 15.7887 15.5662 15.5662C15.7887 15.3437 16.0897 15.2175 16.4043 15.2148C16.719 15.2121 17.0221 15.333 17.2484 15.5516L20 18.3032L22.7516 15.5516C22.9779 15.333 23.281 15.2121 23.5957 15.2148C23.9103 15.2175 24.2113 15.3437 24.4338 15.5662C24.6563 15.7887 24.7825 16.0897 24.7852 16.4043C24.7879 16.719 24.667 17.0221 24.4484 17.2484L21.6968 20L24.4484 22.7516Z" fill="#57D5FF"/>
</svg>
