<svg width="24" height="24" viewBox="0 0 24 24" fill="none" xmlns="http://www.w3.org/2000/svg">
<path d="M14.653 5C14.9161 5.00006 15.1733 5.0821 15.3921 5.23575C15.6109 5.3894 15.7814 5.60776 15.8821 5.86322C15.9828 6.11869 16.0091 6.39979 15.9578 6.67099C15.9065 6.94219 15.7798 7.19131 15.5938 7.38687L11.2119 11.9914L15.5938 16.596C15.7209 16.7249 15.8222 16.8792 15.892 17.0498C15.9617 17.2204 15.9984 17.4039 15.9999 17.5896C16.0015 17.7752 15.9678 17.9594 15.9009 18.1312C15.834 18.303 15.7352 18.4592 15.6103 18.5905C15.4853 18.7217 15.3368 18.8256 15.1732 18.8959C15.0097 18.9662 14.8345 19.0016 14.6578 18.9999C14.4811 18.9983 14.3065 18.9598 14.1441 18.8865C13.9818 18.8132 13.835 18.7067 13.7122 18.5731L8.3896 12.98C8.14014 12.7178 8 12.3622 8 11.9914C8 11.6206 8.14014 11.265 8.3896 11.0028L13.7122 5.4097C13.9617 5.14745 14.3001 5.00008 14.653 5Z" fill="white"/>
</svg>
