<svg width="25" height="24" viewBox="0 0 25 24" fill="none" xmlns="http://www.w3.org/2000/svg">
<path d="M19.5 5.88237H18.118L17.947 5.56048C17.6992 5.09055 17.3165 4.6953 16.8424 4.41951C16.3682 4.14372 15.8214 3.9984 15.264 4.00002H9.736C9.17856 3.99829 8.63175 4.14357 8.15755 4.41937C7.68335 4.69517 7.30071 5.09048 7.053 5.56048L6.882 5.88237H5.5C4.70435 5.88237 3.94129 6.17984 3.37868 6.70936C2.81607 7.23887 2.5 7.95705 2.5 8.70589V18.1177C2.5 18.6169 2.71071 19.0957 3.08579 19.4487C3.46086 19.8017 3.96957 20 4.5 20H20.5C21.0304 20 21.5391 19.8017 21.9142 19.4487C22.2893 19.0957 22.5 18.6169 22.5 18.1177V8.70589C22.5 7.95705 22.1839 7.23887 21.6213 6.70936C21.0587 6.17984 20.2956 5.88237 19.5 5.88237ZM16 12.4706C16 13.1221 15.7947 13.759 15.4101 14.3007C15.0256 14.8424 14.4789 15.2646 13.8394 15.514C13.1999 15.7633 12.4961 15.8285 11.8172 15.7014C11.1383 15.5743 10.5146 15.2606 10.0251 14.7999C9.53564 14.3392 9.2023 13.7522 9.06725 13.1132C8.9322 12.4743 9.00151 11.8119 9.26642 11.21C9.53133 10.6081 9.97993 10.0936 10.5555 9.73164C11.1311 9.36968 11.8078 9.17648 12.5 9.17648C13.4283 9.17648 14.3185 9.52354 14.9749 10.1413C15.6313 10.7591 16 11.5969 16 12.4706Z" fill="#57D5FF"/>
</svg>
