<svg width="24" height="24" viewBox="0 0 24 24" fill="none" xmlns="http://www.w3.org/2000/svg">
<path d="M12 21C10.22 21 8.47991 20.4722 6.99987 19.4832C5.51983 18.4943 4.36628 17.0887 3.68509 15.4442C3.0039 13.7996 2.82567 11.99 3.17294 10.2442C3.5202 8.49836 4.37737 6.89471 5.63604 5.63604C6.89471 4.37737 8.49836 3.5202 10.2442 3.17294C11.99 2.82567 13.7996 3.0039 15.4442 3.68509C17.0887 4.36628 18.4943 5.51983 19.4832 6.99987C20.4722 8.47991 21 10.22 21 12C20.9974 14.3861 20.0483 16.6738 18.3611 18.3611C16.6738 20.0483 14.3861 20.9974 12 21ZM12 4.8C10.576 4.8 9.18393 5.22228 7.9999 6.01342C6.81586 6.80457 5.89302 7.92905 5.34807 9.24468C4.80312 10.5603 4.66054 12.008 4.93835 13.4047C5.21616 14.8013 5.9019 16.0842 6.90883 17.0912C7.91577 18.0981 9.19869 18.7838 10.5954 19.0617C11.992 19.3395 13.4397 19.1969 14.7553 18.6519C16.071 18.107 17.1954 17.1841 17.9866 16.0001C18.7777 14.8161 19.2 13.424 19.2 12C19.1979 10.0911 18.4386 8.261 17.0888 6.9112C15.739 5.5614 13.9089 4.80215 12 4.8Z" fill="black"/>
<path d="M11.1 14.7C10.8613 14.7 10.6324 14.6051 10.4637 14.4363L8.6637 12.6363C8.49976 12.4666 8.40905 12.2392 8.4111 12.0032C8.41315 11.7673 8.5078 11.5415 8.67467 11.3747C8.84153 11.2078 9.06726 11.1131 9.30324 11.1111C9.53922 11.109 9.76656 11.1998 9.9363 11.3637L11.1 12.5274L14.0637 9.5637C14.2334 9.39976 14.4608 9.30905 14.6968 9.3111C14.9327 9.31315 15.1585 9.4078 15.3253 9.57467C15.4922 9.74153 15.5869 9.96726 15.5889 10.2032C15.591 10.4392 15.5002 10.6666 15.3363 10.8363L11.7363 14.4363C11.5676 14.6051 11.3387 14.7 11.1 14.7Z" fill="black"/>
</svg>
