<svg width="24" height="24" viewBox="0 0 24 24" fill="none" xmlns="http://www.w3.org/2000/svg">
<path d="M12 0C9.62663 0 7.30655 0.703788 5.33316 2.02236C3.35977 3.34094 1.8217 5.21508 0.913451 7.4078C0.00519941 9.60051 -0.232441 12.0133 0.230582 14.3411C0.693605 16.6689 1.83649 18.807 3.51472 20.4853C5.19295 22.1635 7.33115 23.3064 9.65892 23.7694C11.9867 24.2324 14.3995 23.9948 16.5922 23.0865C18.7849 22.1783 20.6591 20.6402 21.9776 18.6668C23.2962 16.6934 24 14.3734 24 12C23.9965 8.81847 22.7311 5.76826 20.4814 3.51858C18.2317 1.2689 15.1815 0.00349392 12 0ZM16.4484 14.7516C16.563 14.8623 16.6544 14.9947 16.7173 15.1411C16.7802 15.2875 16.8133 15.445 16.8147 15.6043C16.8161 15.7636 16.7857 15.9217 16.7254 16.0691C16.6651 16.2166 16.5759 16.3506 16.4633 16.4633C16.3506 16.5759 16.2166 16.665 16.0691 16.7254C15.9217 16.7857 15.7637 16.8161 15.6043 16.8147C15.445 16.8133 15.2875 16.7802 15.1411 16.7173C14.9947 16.6544 14.8623 16.563 14.7516 16.4484L12 13.6968L9.2484 16.4484C9.02208 16.667 8.71896 16.7879 8.40432 16.7852C8.08969 16.7825 7.78871 16.6563 7.56622 16.4338C7.34373 16.2113 7.21753 15.9103 7.2148 15.5957C7.21206 15.281 7.33301 14.9779 7.5516 14.7516L10.3032 12L7.5516 9.2484C7.33301 9.02207 7.21206 8.71895 7.2148 8.40432C7.21753 8.08968 7.34373 7.78871 7.56622 7.56622C7.78871 7.34373 8.08969 7.21752 8.40432 7.21479C8.71896 7.21206 9.02208 7.33301 9.2484 7.5516L12 10.3032L14.7516 7.5516C14.9779 7.33301 15.281 7.21206 15.5957 7.21479C15.9103 7.21752 16.2113 7.34373 16.4338 7.56622C16.6563 7.78871 16.7825 8.08968 16.7852 8.40432C16.7879 8.71895 16.667 9.02207 16.4484 9.2484L13.6968 12L16.4484 14.7516Z" fill="#57D5FF"/>
</svg>
