<svg width="24" height="24" viewBox="0 0 24 24" fill="none" xmlns="http://www.w3.org/2000/svg">
<path d="M9.34701 19C9.08387 18.9999 8.82666 18.9179 8.60788 18.7643C8.38911 18.6106 8.2186 18.3922 8.11791 18.1368C8.01722 17.8813 7.99087 17.6002 8.04219 17.329C8.09351 17.0578 8.2202 16.8087 8.40623 16.6131L12.7881 12.0086L8.40623 7.40405C8.27914 7.27506 8.17777 7.12077 8.10803 6.95017C8.03829 6.77958 8.00159 6.5961 8.00005 6.41043C7.99851 6.22477 8.03218 6.04064 8.09909 5.8688C8.166 5.69696 8.2648 5.54084 8.38974 5.40955C8.51468 5.27826 8.66325 5.17443 8.82678 5.10412C8.99031 5.03382 9.16553 4.99844 9.34222 5.00005C9.5189 5.00167 9.69351 5.04024 9.85586 5.11352C10.0182 5.1868 10.165 5.29333 10.2878 5.42688L15.6104 11.02C15.8599 11.2822 16 11.6378 16 12.0086C16 12.3794 15.8599 12.735 15.6104 12.9972L10.2878 18.5903C10.0383 18.8526 9.69989 18.9999 9.34701 19Z" fill="black"/>
</svg>
