<svg width="16" height="16" viewBox="0 0 16 16" fill="none" xmlns="http://www.w3.org/2000/svg">
<path d="M13.9539 6.51343C13.9015 6.34266 13.8041 6.19076 13.6727 6.07517C13.5413 5.95959 13.3813 5.885 13.2111 5.85997L10.1805 5.40055L8.82517 2.53574C8.74921 2.37495 8.63162 2.23954 8.48572 2.14486C8.33981 2.05018 8.17141 2 7.99958 2C7.82774 2 7.65934 2.05018 7.51343 2.14486C7.36753 2.23954 7.24994 2.37495 7.17398 2.53574L5.8186 5.40055L2.78804 5.85997C2.61811 5.88583 2.4585 5.96074 2.32723 6.07624C2.19595 6.19173 2.09825 6.34321 2.04514 6.51357C1.99204 6.68394 1.98565 6.8664 2.0267 7.04035C2.06775 7.2143 2.1546 7.37281 2.27744 7.49799L4.47102 9.72813L3.95322 12.8765C3.9237 13.0532 3.94229 13.235 4.00687 13.4012C4.07145 13.5675 4.17943 13.7115 4.31854 13.8169C4.45766 13.9223 4.62233 13.9849 4.79384 13.9976C4.96536 14.0103 5.13684 13.9725 5.28881 13.8886L7.99958 12.402L10.7103 13.8886C10.8624 13.9717 11.0337 14.0089 11.2049 13.9959C11.3761 13.9829 11.5404 13.9202 11.6793 13.815C11.8182 13.7097 11.9261 13.5661 11.9909 13.4003C12.0557 13.2344 12.0747 13.053 12.0459 12.8765L11.5281 9.72813L13.7217 7.49737C13.8452 7.37272 13.9324 7.21429 13.9735 7.04025C14.0146 6.86621 14.0078 6.68362 13.9539 6.51343Z" fill="white"/>
<path d="M8.00035 2V12.4023H7.99937L5.28941 13.8887C5.13752 13.9725 4.96572 14.0107 4.79429 13.998C4.62286 13.9854 4.45778 13.9227 4.31871 13.8174C4.17963 13.712 4.07177 13.5675 4.00718 13.4014C3.94266 13.2353 3.92406 13.0535 3.95347 12.877L4.47105 9.72852L2.27769 7.49805C2.15485 7.37287 2.06776 7.21399 2.02672 7.04004C1.98576 6.86623 1.99223 6.68389 2.04527 6.51367C2.09837 6.34331 2.19622 6.19167 2.3275 6.07617C2.45876 5.96071 2.61854 5.88621 2.78843 5.86035L5.81871 5.40039L7.17418 2.53613C7.25013 2.37534 7.36811 2.23921 7.51402 2.14453C7.65971 2.0501 7.82785 2.00008 7.99937 2H8.00035Z" fill="#FACA15"/>
</svg>
