<svg width="20" height="20" viewBox="0 0 20 20" fill="none" xmlns="http://www.w3.org/2000/svg">
<path fill-rule="evenodd" clip-rule="evenodd" d="M14.7144 4.66146C14.8801 4.66156 15.0389 4.7274 15.156 4.84452C15.2731 4.96163 15.3389 5.12044 15.339 5.28607L15.339 12.3571C15.342 12.441 15.328 12.5246 15.298 12.603C15.2679 12.6814 15.2224 12.7529 15.1641 12.8133C15.1058 12.8736 15.0359 12.9217 14.9587 12.9545C14.8814 12.9873 14.7984 13.0042 14.7144 13.0042C14.6305 13.0042 14.5474 12.9873 14.4702 12.9545C14.3929 12.9217 14.3231 12.8736 14.2648 12.8133C14.2065 12.7529 14.1609 12.6814 14.1309 12.603C14.1008 12.5246 14.0869 12.441 14.0898 12.3571L14.0898 6.79456L5.72828 15.1561C5.61107 15.2733 5.4521 15.3392 5.28634 15.3392C5.12058 15.3392 4.9616 15.2733 4.84439 15.1561C4.72718 15.0389 4.66134 14.8799 4.66134 14.7142C4.66134 14.5484 4.72718 14.3894 4.84439 14.2722L13.2059 5.91068L7.64336 5.91068C7.55948 5.91364 7.47586 5.89968 7.3975 5.86962C7.31913 5.83957 7.24762 5.79403 7.18723 5.73574C7.12685 5.67745 7.07882 5.60759 7.04602 5.53033C7.01322 5.45307 6.99631 5.37 6.99631 5.28607C6.99631 5.20214 7.01322 5.11907 7.04602 5.04181C7.07882 4.96455 7.12685 4.89469 7.18723 4.8364C7.24762 4.77811 7.31913 4.73258 7.3975 4.70252C7.47586 4.67246 7.55948 4.6585 7.64336 4.66146L14.7144 4.66146Z" fill="#E02424"/>
</svg>
