<svg width="20" height="20" viewBox="0 0 20 20" fill="none" xmlns="http://www.w3.org/2000/svg">
<path fill-rule="evenodd" clip-rule="evenodd" d="M14.7144 15.3392C14.8801 15.339 15.0389 15.2732 15.156 15.1561C15.2731 15.039 15.3389 14.8802 15.339 14.7145L15.339 7.64347C15.342 7.55959 15.328 7.47598 15.298 7.39761C15.2679 7.31924 15.2224 7.24773 15.1641 7.18735C15.1058 7.12696 15.0359 7.07893 14.9587 7.04613C14.8814 7.01333 14.7984 6.99642 14.7144 6.99642C14.6305 6.99642 14.5474 7.01333 14.4702 7.04613C14.3929 7.07893 14.3231 7.12696 14.2648 7.18735C14.2065 7.24773 14.1609 7.31924 14.1309 7.39761C14.1008 7.47598 14.0869 7.55959 14.0898 7.64347L14.0898 13.206L5.72828 4.84451C5.61107 4.7273 5.4521 4.66145 5.28634 4.66145C5.12058 4.66145 4.9616 4.7273 4.84439 4.84451C4.72718 4.96172 4.66134 5.12069 4.66134 5.28645C4.66134 5.45221 4.72718 5.61118 4.84439 5.72839L13.2059 14.0899L7.64336 14.0899C7.55948 14.087 7.47586 14.1009 7.3975 14.131C7.31913 14.161 7.24762 14.2066 7.18723 14.2649C7.12685 14.3232 7.07882 14.393 7.04602 14.4703C7.01322 14.5475 6.99631 14.6306 6.99631 14.7145C6.99631 14.7985 7.01322 14.8815 7.04602 14.9588C7.07882 15.0361 7.12685 15.1059 7.18723 15.1642C7.24762 15.2225 7.31913 15.268 7.3975 15.2981C7.47586 15.3281 7.55948 15.3421 7.64336 15.3392L14.7144 15.3392Z" fill="#0E9F6E"/>
</svg>
