<svg width="16" height="16" viewBox="0 0 16 16" fill="none" xmlns="http://www.w3.org/2000/svg">
<path d="M3.31738 4.25586H7.72949L7.46387 4.53613H3.31738C3.19124 4.53613 3.07194 4.5765 2.97363 4.64551L2.88281 4.72363C2.77311 4.83922 2.71582 4.99076 2.71582 5.14355V12.6123C2.71582 12.7651 2.77311 12.9166 2.88281 13.0322C2.99335 13.1486 3.14922 13.2197 3.31738 13.2197H10.4062C10.5744 13.2197 10.7303 13.1487 10.8408 13.0322C10.9505 12.9166 11.0078 12.7651 11.0078 12.6123V9.49707L11.2236 9.26953V12.6123L11.2188 12.7031C11.1987 12.9121 11.1113 13.105 10.9746 13.249C10.8192 13.4128 10.6142 13.4997 10.4062 13.5H3.31738L3.23926 13.4961C3.05866 13.477 2.88498 13.3922 2.74902 13.249C2.59273 13.0844 2.50026 12.8558 2.5 12.6123V5.14355L2.50391 5.05273C2.5239 4.84369 2.61232 4.65087 2.74902 4.50684C2.88498 4.36365 3.05865 4.27884 3.23926 4.25977L3.31738 4.25586ZM12.1748 2.5C12.517 2.5 12.8512 2.64256 13.1016 2.90625V2.90723C13.2261 3.038 13.3267 3.19471 13.3955 3.36914C13.4643 3.54359 13.4999 3.73155 13.5 3.92188C13.5001 4.11222 13.4641 4.30003 13.3955 4.47461C13.3269 4.64911 13.2279 4.80655 13.1035 4.9375H13.1025L8.37598 9.91699V9.91797C8.35926 9.93556 8.34089 9.94387 8.3252 9.94727L6.18066 10.3994C6.17283 10.4008 6.16502 10.4003 6.15723 10.4004C6.14588 10.4002 6.13337 10.3987 6.12109 10.3926C6.1084 10.3862 6.09498 10.3758 6.08301 10.3604C6.07082 10.3446 6.06116 10.3243 6.05566 10.3008C6.05016 10.2773 6.04908 10.2524 6.05371 10.2285L6.05469 10.2266L6.4834 7.96289H6.48438C6.49041 7.93098 6.50446 7.90479 6.52148 7.88672L11.248 2.90625C11.4984 2.64255 11.8326 2.50001 12.1748 2.5ZM10.1973 4.37207L6.78613 7.9668L6.68457 8.07324L6.65723 8.21777L6.44238 9.34961L6.30176 10.0879L7.03613 9.93262L8.11133 9.70605L8.26367 9.67383L8.37012 9.56055L11.7822 5.96582L12.1084 5.62109L11.7822 5.27734L10.9229 4.37207L10.5605 3.99023L10.1973 4.37207ZM12.1748 2.78027C11.8726 2.78028 11.5883 2.90683 11.3828 3.12305L10.7305 3.81055L11.0566 4.15527L11.916 5.06055L12.2783 5.44238L12.6406 5.06055L12.9668 4.71777C13.0684 4.6108 13.1485 4.48509 13.2021 4.34863C13.2557 4.21235 13.2832 4.067 13.2832 3.9209C13.2832 3.77457 13.2558 3.62866 13.2021 3.49219C13.1484 3.35571 13.0685 3.23003 12.9668 3.12305C12.7613 2.90684 12.477 2.78027 12.1748 2.78027Z" fill="#1F2A37" stroke="black"/>
</svg>
