<svg width="16" height="16" viewBox="0 0 16 16" fill="none" xmlns="http://www.w3.org/2000/svg">
<path d="M12.2553 2.87863C12.1334 2.82816 11.9993 2.81497 11.87 2.84072C11.7406 2.86647 11.6218 2.93001 11.5286 3.0233C11.1225 3.42755 10.5729 3.65451 9.99992 3.65451C9.42695 3.65451 8.8773 3.42755 8.47125 3.0233C7.81516 2.36909 6.92644 2.00171 5.99992 2.00171C5.07339 2.00171 4.18467 2.36909 3.52859 3.0233C3.40355 3.14829 3.33329 3.31784 3.33325 3.49463V12.1613C3.33325 12.3381 3.40349 12.5077 3.52851 12.6327C3.65354 12.7577 3.82311 12.828 3.99992 12.828C4.17673 12.828 4.3463 12.7577 4.47132 12.6327C4.59635 12.5077 4.66659 12.3381 4.66659 12.1613V9.12597C5.08284 8.8012 5.60336 8.63959 6.13036 8.67151C6.65736 8.70343 7.15456 8.92667 7.52859 9.2993C8.18467 9.95351 9.07339 10.3209 9.99992 10.3209C10.9264 10.3209 11.8152 9.95351 12.4713 9.2993C12.5963 9.1743 12.6665 9.00476 12.6666 8.82797V3.49463C12.6666 3.36279 12.6276 3.2339 12.5543 3.12425C12.4811 3.0146 12.377 2.92913 12.2553 2.87863Z" fill="#57D5FF"/>
</svg>
