<svg width="24" height="24" viewBox="0 0 24 24" fill="none" xmlns="http://www.w3.org/2000/svg">
<g clip-path="url(#clip0_324_35127)">
<path d="M2.04999 13.0001H7.52699C7.6981 16.167 8.70754 19.2315 10.452 21.8801C8.26692 21.5369 6.25718 20.4793 4.737 18.8726C3.21683 17.2659 2.27191 15.2008 2.04999 13.0001ZM2.04999 11.0001C2.27191 8.79942 3.21683 6.73429 4.737 5.12763C6.25718 3.52097 8.26692 2.46334 10.452 2.12012C8.70754 4.76873 7.6981 7.83326 7.52699 11.0001H2.04999ZM21.95 11.0001H16.473C16.3019 7.83326 15.2924 4.76873 13.548 2.12012C15.7331 2.46334 17.7428 3.52097 19.263 5.12763C20.7832 6.73429 21.7281 8.79942 21.95 11.0001ZM21.95 13.0001C21.7281 15.2008 20.7832 17.2659 19.263 18.8726C17.7428 20.4793 15.7331 21.5369 13.548 21.8801C15.2924 19.2315 16.3019 16.167 16.473 13.0001H21.951H21.95ZM9.52999 13.0001H14.47C14.3054 15.6996 13.4553 18.3126 12 20.5921C10.5447 18.3126 9.69458 15.6996 9.52999 13.0001ZM9.52999 11.0001C9.69458 8.30063 10.5447 5.68768 12 3.40812C13.4553 5.68768 14.3054 8.30063 14.47 11.0001H9.52999Z" fill="white"/>
</g>
<defs>
<clipPath id="clip0_324_35127">
<rect width="24" height="24" fill="white"/>
</clipPath>
</defs>
</svg>
