<svg width="40" height="40" viewBox="0 0 40 40" fill="none" xmlns="http://www.w3.org/2000/svg">
<rect width="40" height="40" rx="20" fill="white"/>
<g clip-path="url(#clip0_1402_9293)">
<path d="M29.805 20.2305C29.805 19.5507 29.7499 18.8672 29.6323 18.1985H20.2V22.0493H25.6014C25.3773 23.2913 24.6571 24.3899 23.6025 25.0881V27.5867H26.825C28.7174 25.845 29.805 23.2729 29.805 20.2305Z" fill="#4285F4"/>
<path d="M20.2 30.0008C22.897 30.0008 25.1715 29.1152 26.8287 27.5867L23.6062 25.088C22.7096 25.698 21.5522 26.0434 20.2037 26.0434C17.5948 26.0434 15.3828 24.2833 14.5891 21.917H11.2637V24.4928C12.9613 27.8696 16.419 30.0008 20.2 30.0008Z" fill="#34A853"/>
<path d="M14.5855 21.917C14.1666 20.675 14.1666 19.3302 14.5855 18.0882V15.5125H11.2638C9.84542 18.3381 9.84542 21.6671 11.2638 24.4928L14.5855 21.917Z" fill="#FBBC04"/>
<path d="M20.2 13.9581C21.6257 13.936 23.0036 14.4725 24.0361 15.4572L26.8912 12.6022C25.0833 10.9046 22.6839 9.97128 20.2 10.0007C16.419 10.0007 12.9613 12.1319 11.2637 15.5123L14.5854 18.0881C15.3754 15.7181 17.5911 13.9581 20.2 13.9581Z" fill="#EA4335"/>
</g>
<defs>
<clipPath id="clip0_1402_9293">
<rect width="20" height="20" fill="white" transform="translate(10 10)"/>
</clipPath>
</defs>
</svg>
