<svg width="24" height="25" viewBox="0 0 24 25" fill="none" xmlns="http://www.w3.org/2000/svg">
<path d="M21.798 7.76312C21.27 5.79512 19.717 4.24412 17.747 3.71712C15.817 3.20312 13.767 3.72512 12.002 5.15412C10.714 4.10312 9.28702 3.53412 7.83002 3.50012C6.24702 3.47812 4.77002 4.05712 3.65602 5.16812C1.56202 7.25912 1.10502 11.0351 4.28202 14.2071L11.292 21.2071C11.488 21.4021 11.744 21.5001 12 21.5001C12.256 21.5001 12.512 21.4021 12.708 21.2071L19.718 14.2071C21.627 12.3011 22.385 9.95212 21.798 7.76312ZM18.302 12.7931L12 19.0861L5.69802 12.7931C3.34702 10.4441 3.72502 7.92812 5.07202 6.58212C5.72302 5.93212 6.64702 5.50812 7.69502 5.50812C8.81502 5.50812 10.076 5.99312 11.291 7.20712C11.682 7.59812 12.316 7.59812 12.707 7.20712C15.039 4.87912 17.55 5.26912 18.895 6.61312C19.619 7.33712 20.006 8.29712 19.987 9.31612C19.965 10.5131 19.382 11.7151 18.302 12.7931Z" fill="#57D5FF"/>
</svg>
