<svg width="24" height="24" viewBox="0 0 24 24" fill="none" xmlns="http://www.w3.org/2000/svg">
<g clip-path="url(#clip0_601_955)">
<g clip-path="url(#clip1_601_955)">
<path d="M10.0694 21C5.61918 21 2 17.497 2 13.1898C2 8.88246 5.61918 5.3795 10.0694 5.3795H11.2572C12.6603 5.3795 14.0379 5.7365 15.2452 6.40096C15.3627 5.91281 15.5659 5.44945 15.8535 5.01959C16.1967 4.51105 16.6348 4.08848 17.1572 3.76208L17.1708 3.75334C17.6345 3.47648 18.2923 3.14863 19.2845 3.05537L19.8821 3L20.0688 3.55225C20.3774 4.46879 20.3278 5.1857 20.251 5.7059L20.248 5.72193C20.1908 6.0527 20.0959 6.37181 19.9634 6.67781C20.3187 6.76233 20.662 6.8891 20.9887 7.05812L21.0037 7.06541C21.478 7.32332 22.0952 7.72112 22.6583 8.51672L22.9985 8.99611L22.589 9.4216C21.91 10.1269 21.2401 10.4329 20.7312 10.6208L20.7147 10.6266C20.2359 10.7913 19.7376 10.8758 19.2348 10.8758C19.1445 10.8758 19.0511 10.8729 18.9593 10.8671C19.2002 11.616 19.3236 12.4 19.3236 13.1898C19.3236 17.4956 15.7044 21 11.2542 21H10.0664H10.0694Z" fill="white"/>
<path d="M11.2572 6.10547H10.0694C6.02688 6.10547 2.74976 9.27735 2.74976 13.1901V13.1915C2.74976 17.1042 6.02688 20.2761 10.0694 20.2761H11.2572C15.2998 20.2761 18.5769 17.1042 18.5769 13.1915V13.1901C18.5769 9.27735 15.2998 6.10547 11.2572 6.10547Z" fill="black"/>
<path d="M17.0668 13.1843C17.3167 14.0279 16.7777 14.908 16.0084 14.908H5.31649C4.54719 14.908 4.00672 14.0279 4.25814 13.1843L4.92205 10.9534C5.07862 10.4303 5.50317 10.0791 5.98041 10.0791H15.3445C15.8218 10.0791 16.2463 10.4303 16.4029 10.9534L17.0668 13.1843Z" fill="white"/>
<path d="M20.6379 7.69947C20.1576 7.45176 19.6669 7.32499 19.17 7.29002C19.021 7.27982 18.8704 7.27982 18.7199 7.2871C18.8027 7.18948 18.881 7.08748 18.9517 6.98256C19.2257 6.57894 19.42 6.12577 19.5088 5.60557C19.5871 5.07809 19.6021 4.51126 19.3552 3.77832C18.5618 3.85263 18.0319 4.0916 17.5622 4.37137C17.1045 4.65843 16.7522 5.01106 16.4797 5.41468C16.2088 5.81977 16.0145 6.27294 15.9257 6.79313C15.8489 7.32062 15.8324 7.88744 16.0763 8.61747C16.1049 8.61455 16.1305 8.61018 16.1591 8.60727C16.5866 9.16972 17.0323 9.48155 17.4839 9.72635C17.9641 9.97552 18.4549 10.1023 18.9517 10.1402C19.4486 10.1766 19.9529 10.1212 20.4663 9.94346C20.9811 9.75404 21.5005 9.49175 22.0425 8.92784C21.5909 8.29253 21.1181 7.95884 20.6379 7.69802V7.69947Z" fill="black"/>
</g>
</g>
<defs>
<clipPath id="clip0_601_955">
<rect width="24" height="24" fill="white"/>
</clipPath>
<clipPath id="clip1_601_955">
<rect width="21" height="18" fill="white" transform="translate(2 3)"/>
</clipPath>
</defs>
</svg>
