<svg width="14" height="14" viewBox="0 0 14 14" fill="none" xmlns="http://www.w3.org/2000/svg">
<path d="M12.6695 6.58754L11.5014 5.42086L7.41301 1.33748C7.30348 1.22812 7.15495 1.16669 7.00008 1.16669C6.84521 1.16669 6.69668 1.22812 6.58716 1.33748L2.4988 5.42086L1.3307 6.58754C1.22431 6.69756 1.16544 6.84491 1.16677 6.99786C1.1681 7.15081 1.22952 7.29712 1.33781 7.40527C1.4461 7.51343 1.59259 7.57478 1.74572 7.57611C1.89886 7.57744 2.04639 7.51864 2.15655 7.41238L2.32767 7.24146V11.6667C2.32767 11.9761 2.45074 12.2728 2.6698 12.4916C2.88886 12.7104 3.18598 12.8334 3.49578 12.8334H5.24793C5.40283 12.8334 5.55138 12.7719 5.66091 12.6625C5.77045 12.5531 5.83198 12.4047 5.83198 12.25V9.91666C5.83198 9.76194 5.89351 9.61357 6.00304 9.50417C6.11257 9.39477 6.26113 9.33332 6.41603 9.33332H7.58413C7.73903 9.33332 7.88759 9.39477 7.99712 9.50417C8.10665 9.61357 8.16818 9.76194 8.16818 9.91666V12.25C8.16818 12.4047 8.22972 12.5531 8.33925 12.6625C8.44878 12.7719 8.59733 12.8334 8.75223 12.8334H10.5044C10.8142 12.8334 11.1113 12.7104 11.3304 12.4916C11.5494 12.2728 11.6725 11.9761 11.6725 11.6667V7.24146L11.8436 7.41238C11.9538 7.51864 12.1013 7.57744 12.2544 7.57611C12.4076 7.57478 12.5541 7.51343 12.6623 7.40527C12.7706 7.29712 12.8321 7.15081 12.8334 6.99786C12.8347 6.84491 12.7759 6.69756 12.6695 6.58754Z" fill="#1F2A37"/>
</svg>
