<svg width="20" height="20" viewBox="0 0 20 20" fill="none" xmlns="http://www.w3.org/2000/svg">
<path d="M15.8242 8.43671C15.6617 5.59504 13.2983 3.33337 10.4167 3.33337C8.2125 3.33337 6.23751 4.68504 5.41167 6.68754C3.31167 6.90004 1.66667 8.67837 1.66667 10.8334C1.66667 13.1309 3.53584 15 5.83334 15H7.63917C8.09917 15 8.4725 14.6275 8.4725 14.1667C8.4725 13.7059 8.09917 13.3334 7.63917 13.3334H5.83334C4.455 13.3334 3.33334 12.2117 3.33334 10.8334C3.33334 9.45504 4.45417 8.33421 5.81334 8.33421H5.81417C5.83751 8.33754 5.93584 8.34837 5.95917 8.35004C6.34584 8.36754 6.70334 8.11837 6.80834 7.74171C7.25834 6.12754 8.74251 5.00004 10.4167 5.00004C12.4842 5.00004 14.1667 6.68254 14.1667 8.75004C14.1667 8.86587 14.1592 8.98004 14.1492 9.09337C14.1275 9.32671 14.205 9.55837 14.3633 9.73087C14.5325 9.91587 14.7458 10.0125 15.0308 10.0009C15.9358 10.0167 16.6667 10.7584 16.6667 11.6667C16.6667 12.5859 15.9192 13.3334 15 13.3334H12.5C12.04 13.3334 11.6667 13.7059 11.6667 14.1667C11.6667 14.6275 12.04 15 12.5 15H15C16.8383 15 18.3333 13.505 18.3333 11.6667C18.3333 10.1134 17.265 8.80421 15.8242 8.43671Z" fill="#57D5FF"/>
<path d="M12.2558 10.5892C12.5817 10.2634 12.5817 9.73671 12.2558 9.41087L10.5892 7.74421C10.5125 7.66754 10.42 7.60671 10.3183 7.56421C10.1142 7.48004 9.885 7.48004 9.68167 7.56421C9.58 7.60671 9.48751 7.66754 9.41084 7.74421L7.74417 9.41087C7.41834 9.73671 7.41834 10.2634 7.74417 10.5892C8.07001 10.915 8.59667 10.915 8.9225 10.5892L9.16667 10.345V15.8334C9.16667 16.2942 9.54 16.6667 10 16.6667C10.46 16.6667 10.8333 16.2942 10.8333 15.8334V10.345L11.0775 10.5892C11.24 10.7517 11.4533 10.8334 11.6667 10.8334C11.88 10.8334 12.0933 10.7517 12.2558 10.5892Z" fill="#57D5FF"/>
</svg>
