<svg width="20" height="20" viewBox="0 0 20 20" fill="none" xmlns="http://www.w3.org/2000/svg">
<path d="M9.99996 1.66675C8.35179 1.66675 6.74062 2.15549 5.37021 3.07117C3.9998 3.98685 2.9317 5.28833 2.30097 6.81105C1.67024 8.33377 1.50521 10.0093 1.82675 11.6258C2.1483 13.2423 2.94197 14.7272 4.10741 15.8926C5.27284 17.0581 6.7577 17.8517 8.37421 18.1733C9.99072 18.4948 11.6663 18.3298 13.189 17.6991C14.7117 17.0683 16.0132 16.0002 16.9289 14.6298C17.8446 13.2594 18.3333 11.6483 18.3333 10.0001C18.3309 7.79069 17.4521 5.67248 15.8898 4.1102C14.3276 2.54793 12.2094 1.66917 9.99996 1.66675ZM9.5833 5.00008C9.83052 5.00008 10.0722 5.07339 10.2778 5.21074C10.4833 5.3481 10.6435 5.54332 10.7381 5.77173C10.8328 6.00013 10.8575 6.25147 10.8093 6.49394C10.761 6.73642 10.642 6.95915 10.4672 7.13396C10.2924 7.30878 10.0696 7.42783 9.82716 7.47606C9.58468 7.52429 9.33335 7.49954 9.10494 7.40493C8.87653 7.31032 8.68131 7.1501 8.54396 6.94454C8.40661 6.73898 8.3333 6.49731 8.3333 6.25008C8.3333 5.91856 8.46499 5.60062 8.69941 5.3662C8.93383 5.13178 9.25178 5.00008 9.5833 5.00008ZM11.6666 14.1667H8.3333C8.11228 14.1667 7.90032 14.0789 7.74404 13.9227C7.58776 13.7664 7.49996 13.5544 7.49996 13.3334C7.49996 13.1124 7.58776 12.9004 7.74404 12.7442C7.90032 12.5879 8.11228 12.5001 8.3333 12.5001H9.16663V10.0001H8.3333C8.11228 10.0001 7.90032 9.91228 7.74404 9.756C7.58776 9.59972 7.49996 9.38776 7.49996 9.16675C7.49996 8.94573 7.58776 8.73377 7.74404 8.57749C7.90032 8.42121 8.11228 8.33341 8.3333 8.33341H9.99996C10.221 8.33341 10.4329 8.42121 10.5892 8.57749C10.7455 8.73377 10.8333 8.94573 10.8333 9.16675V12.5001H11.6666C11.8876 12.5001 12.0996 12.5879 12.2559 12.7442C12.4122 12.9004 12.5 13.1124 12.5 13.3334C12.5 13.5544 12.4122 13.7664 12.2559 13.9227C12.0996 14.0789 11.8876 14.1667 11.6666 14.1667Z" fill="#009DC3"/>
</svg>
