<svg width="20" height="20" viewBox="0 0 20 20" fill="none" xmlns="http://www.w3.org/2000/svg">
<path d="M3.23047 5H2.1888C1.90115 5 1.66797 5.22386 1.66797 5.5V6.5C1.66797 6.77614 1.90115 7 2.1888 7H3.23047C3.51812 7 3.7513 6.77614 3.7513 6.5V5.5C3.7513 5.22386 3.51812 5 3.23047 5Z" fill="#57D5FF"/>
<path d="M3.23047 9H2.1888C1.90115 9 1.66797 9.22386 1.66797 9.5V10.5C1.66797 10.7761 1.90115 11 2.1888 11H3.23047C3.51812 11 3.7513 10.7761 3.7513 10.5V9.5C3.7513 9.22386 3.51812 9 3.23047 9Z" fill="#57D5FF"/>
<path d="M3.23047 13H2.1888C1.90115 13 1.66797 13.2239 1.66797 13.5V14.5C1.66797 14.7761 1.90115 15 2.1888 15H3.23047C3.51812 15 3.7513 14.7761 3.7513 14.5V13.5C3.7513 13.2239 3.51812 13 3.23047 13Z" fill="#57D5FF"/>
<path d="M17.293 7H6.8763C6.60003 7 6.33508 6.89464 6.13973 6.70711C5.94438 6.51957 5.83464 6.26522 5.83464 6C5.83464 5.73478 5.94438 5.48043 6.13973 5.29289C6.33508 5.10536 6.60003 5 6.8763 5H17.293C17.5692 5 17.8342 5.10536 18.0295 5.29289C18.2249 5.48043 18.3346 5.73478 18.3346 6C18.3346 6.26522 18.2249 6.51957 18.0295 6.70711C17.8342 6.89464 17.5692 7 17.293 7Z" fill="#57D5FF"/>
<path d="M17.293 11H6.8763C6.60003 11 6.33508 10.8946 6.13973 10.7071C5.94438 10.5196 5.83464 10.2652 5.83464 10C5.83464 9.73478 5.94438 9.48043 6.13973 9.29289C6.33508 9.10536 6.60003 9 6.8763 9H17.293C17.5692 9 17.8342 9.10536 18.0295 9.29289C18.2249 9.48043 18.3346 9.73478 18.3346 10C18.3346 10.2652 18.2249 10.5196 18.0295 10.7071C17.8342 10.8946 17.5692 11 17.293 11Z" fill="#57D5FF"/>
<path d="M17.293 15H6.8763C6.60003 15 6.33508 14.8946 6.13973 14.7071C5.94438 14.5196 5.83464 14.2652 5.83464 14C5.83464 13.7348 5.94438 13.4804 6.13973 13.2929C6.33508 13.1054 6.60003 13 6.8763 13H17.293C17.5692 13 17.8342 13.1054 18.0295 13.2929C18.2249 13.4804 18.3346 13.7348 18.3346 14C18.3346 14.2652 18.2249 14.5196 18.0295 14.7071C17.8342 14.8946 17.5692 15 17.293 15Z" fill="#57D5FF"/>
</svg>
