<svg width="20" height="20" viewBox="0 0 20 20" fill="none" xmlns="http://www.w3.org/2000/svg">
<g clip-path="url(#clip0_3356_11053)">
<path d="M1.66797 4.16667L7.5013 1.66667L12.5013 4.16667L17.7538 1.91584C17.8172 1.88866 17.8864 1.87765 17.9551 1.88379C18.0238 1.88993 18.0899 1.91304 18.1475 1.95104C18.2051 1.98904 18.2523 2.04074 18.285 2.1015C18.3176 2.16226 18.3347 2.23019 18.3346 2.29917V15.8333L12.5013 18.3333L7.5013 15.8333L2.2488 18.0842C2.1854 18.1114 2.11623 18.1224 2.04752 18.1162C1.97881 18.1101 1.9127 18.087 1.85512 18.049C1.79755 18.011 1.75031 17.9593 1.71764 17.8985C1.68498 17.8377 1.66791 17.7698 1.66797 17.7008V4.16667ZM13.3346 16.1625L16.668 14.7342V4.19417L13.3346 5.62251V16.1625ZM11.668 16.0533V5.61334L8.33464 3.94667V14.3867L11.668 16.0533ZM6.66797 14.3775V3.83751L3.33464 5.26584V15.8058L6.66797 14.3775Z" fill="#57D5FF"/>
</g>
<defs>
<clipPath id="clip0_3356_11053">
<rect width="20" height="20" fill="white"/>
</clipPath>
</defs>
</svg>
