<svg width="24" height="24" viewBox="0 0 24 24" fill="none" xmlns="http://www.w3.org/2000/svg">
<g clip-path="url(#clip0_324_32553)">
<path d="M2 5.00928L9 2.00928L15 5.00928L21.303 2.30828C21.3791 2.27566 21.4621 2.26245 21.5445 2.26982C21.627 2.27719 21.7063 2.30492 21.7754 2.35052C21.8445 2.39612 21.9012 2.45816 21.9404 2.53108C21.9796 2.60399 22.0001 2.68549 22 2.76828V19.0093L15 22.0093L9 19.0093L2.697 21.7103C2.62091 21.7429 2.53792 21.7561 2.45547 21.7487C2.37301 21.7414 2.29368 21.7136 2.22459 21.668C2.1555 21.6224 2.09881 21.5604 2.05961 21.4875C2.02041 21.4146 1.99993 21.3331 2 21.2503V5.00928Z" fill="white"/>
</g>
<defs>
<clipPath id="clip0_324_32553">
<rect width="24" height="24" fill="white" transform="translate(0 0.00927734)"/>
</clipPath>
</defs>
</svg>
