<svg width="33" height="32" viewBox="0 0 33 32" fill="none" xmlns="http://www.w3.org/2000/svg">
<path d="M16.5364 0H16.4636C7.64713 0 0.5 7.14924 0.5 15.9683V16.0412C0.5 24.8602 7.64713 32.0094 16.4636 32.0094H16.5364C25.3529 32.0094 32.5 24.8602 32.5 16.0412V15.9683C32.5 7.14924 25.3529 0 16.5364 0Z" fill="url(#paint0_linear_324_32398)"/>
<path d="M26.0266 16.004V16.059C26.0008 20.6401 22.7249 24.4676 18.3918 25.3445C18.0981 25.4029 17.801 25.4488 17.4983 25.4814C17.1709 25.515 16.8368 25.5341 16.5005 25.5341C15.1776 25.5341 13.9175 25.2638 12.7717 24.7737L8.35111 25.2447C7.5966 25.3255 7.03941 24.555 7.3522 23.8642L8.54058 21.2322C7.55064 19.7306 6.97327 17.9329 6.97327 16.004C6.97327 10.7512 11.2481 6.4751 16.5005 6.4751C21.467 6.4751 25.558 10.297 25.9885 15.1551C26.0143 15.4332 26.0266 15.7192 26.0266 16.004Z" fill="white"/>
<path d="M21.0804 13.2216C21.5076 12.8717 22.0939 13.3954 21.7934 13.8586L19.7934 16.9448L18.735 18.5776C18.5097 18.9253 18.0366 19.0082 17.7059 18.7582L15.9513 17.427L14.8694 16.6072C14.782 16.5411 14.6598 16.5433 14.5746 16.6128L11.9198 18.7795C11.4926 19.1282 10.9074 18.6045 11.2079 18.1414L13.0813 15.2525L14.1396 13.6197C14.3649 13.272 14.838 13.1891 15.1688 13.4391L16.8717 14.7299L17.9525 15.5486C18.0411 15.6147 18.1633 15.6125 18.2485 15.543L21.0804 13.2205V13.2216Z" fill="url(#paint1_linear_324_32398)"/>
<defs>
<linearGradient id="paint0_linear_324_32398" x1="5.17505" y1="27.333" x2="27.8305" y2="4.68423" gradientUnits="userSpaceOnUse">
<stop stop-color="#0498FA"/>
<stop offset="0.34" stop-color="#5C5EFE"/>
<stop offset="0.73" stop-color="#F44E90"/>
<stop offset="1" stop-color="#FA8679"/>
</linearGradient>
<linearGradient id="paint1_linear_324_32398" x1="12.5297" y1="20.0063" x2="20.5065" y2="12.0318" gradientUnits="userSpaceOnUse">
<stop stop-color="#0498FA"/>
<stop offset="0.34" stop-color="#5C5EFE"/>
<stop offset="0.73" stop-color="#F44E90"/>
<stop offset="1" stop-color="#FA8679"/>
</linearGradient>
</defs>
</svg>
