<svg width="24" height="24" viewBox="0 0 24 24" fill="none" xmlns="http://www.w3.org/2000/svg">
<g clip-path="url(#clip0_324_32557)">
<path d="M18.364 17.3732L12 23.7372L5.636 17.3732C4.37734 16.1145 3.52019 14.5109 3.17293 12.765C2.82567 11.0192 3.00391 9.20963 3.6851 7.5651C4.36629 5.92057 5.51984 4.51497 6.99988 3.52604C8.47992 2.53712 10.22 2.00928 12 2.00928C13.78 2.00928 15.5201 2.53712 17.0001 3.52604C18.4802 4.51497 19.6337 5.92057 20.3149 7.5651C20.9961 9.20963 21.1743 11.0192 20.8271 12.765C20.4798 14.5109 19.6227 16.1145 18.364 17.3732ZM12 15.0092C13.0609 15.0092 14.0783 14.5878 14.8284 13.8376C15.5786 13.0875 16 12.0701 16 11.0092C16 9.94833 15.5786 8.93092 14.8284 8.18077C14.0783 7.43063 13.0609 7.0092 12 7.0092C10.9391 7.0092 9.92172 7.43063 9.17158 8.18077C8.42143 8.93092 8 9.94833 8 11.0092C8 12.0701 8.42143 13.0875 9.17158 13.8376C9.92172 14.5878 10.9391 15.0092 12 15.0092ZM12 13.0092C11.4696 13.0092 10.9609 12.7985 10.5858 12.4234C10.2107 12.0483 10 11.5396 10 11.0092C10 10.4788 10.2107 9.97006 10.5858 9.59499C10.9609 9.21991 11.4696 9.0092 12 9.0092C12.5304 9.0092 13.0391 9.21991 13.4142 9.59499C13.7893 9.97006 14 10.4788 14 11.0092C14 11.5396 13.7893 12.0483 13.4142 12.4234C13.0391 12.7985 12.5304 13.0092 12 13.0092Z" fill="white"/>
</g>
<defs>
<clipPath id="clip0_324_32557">
<rect width="24" height="24" fill="white" transform="translate(0 0.00927734)"/>
</clipPath>
</defs>
</svg>
