<svg width="25" height="24" viewBox="0 0 25 24" fill="none" xmlns="http://www.w3.org/2000/svg">
<path d="M12.5 12.8531L21.775 5.44053C21.4189 5.15812 20.9673 5.00211 20.5 5H4.5C4.03267 5.00211 3.58115 5.15812 3.225 5.44053L12.5 12.8531Z" fill="white"/>
<path d="M13.75 14.3119C13.3861 14.5717 12.9412 14.7136 12.483 14.716C12.056 14.7168 11.6403 14.5877 11.299 14.3483L2.5 7.3184V17.1333C2.5 17.6284 2.71071 18.1032 3.08579 18.4533C3.46086 18.8033 3.96957 19 4.5 19H20.5C21.0304 19 21.5391 18.8033 21.9142 18.4533C22.2893 18.1032 22.5 17.6284 22.5 17.1333V7.3184L13.75 14.3119Z" fill="white"/>
</svg>
