<svg width="24" height="24" viewBox="0 0 24 24" fill="none" xmlns="http://www.w3.org/2000/svg">
<path d="M19.0312 12.7031C17.3752 12.7031 15.9735 13.1314 15.0913 13.8063L8.33536 12.1287C8.12583 11.4727 7.57861 10.902 6.81356 10.5007L5.95116 11.7953C5.511 12.3872 4.87997 12.7031 4.21875 12.7031C3.55753 12.7031 2.9265 12.3872 2.53027 11.8578L1.62441 10.5005C0.642422 11.0155 0 11.8054 0 12.7031C0 14.2563 1.88878 15.5156 4.21875 15.5156C6.10341 15.5156 7.68047 14.6861 8.22174 13.5492L14.19 15.0298C14.1455 15.1878 14.1094 15.3481 14.1094 15.5156C14.1094 16.1007 14.397 16.631 14.8913 17.0715L11.9104 18.7749C11.1395 18.4924 10.2114 18.3281 9.1875 18.3281C6.38184 18.3281 4.21875 19.5372 4.21875 21.1406C4.21875 22.7439 6.38184 23.9999 9.1875 23.9999C11.9932 23.9999 14.1094 22.7439 14.1094 21.1406C14.1094 20.5555 13.8217 20.0252 13.3275 19.5846L16.3084 17.8812C17.0793 18.1637 18.0074 18.3281 19.0312 18.3281C21.8369 18.3281 24 17.1189 24 15.5156C24 13.9122 21.8369 12.7031 19.0312 12.7031Z" fill="#57D5FF"/>
<path d="M3.65639 11.0153C3.78891 11.1925 3.99764 11.2969 4.21875 11.2969C4.43986 11.2969 4.64859 11.1925 4.78111 11.0153L7.59567 6.74766C8.14636 6.01364 8.4375 5.13956 8.4375 4.21875C8.4375 1.89239 6.54511 0 4.21875 0C1.89239 0 0 1.89239 0 4.21875C0 5.13886 0.291141 6.01364 0.841828 6.74766L3.65639 11.0153ZM4.21875 2.10938C5.38191 2.10938 6.32812 3.05559 6.32812 4.21875C6.32812 5.38191 5.38191 6.32812 4.21875 6.32812C3.05559 6.32812 2.10938 5.38191 2.10938 4.21875C2.10938 3.05559 3.05559 2.10938 4.21875 2.10938Z" fill="#57D5FF"/>
</svg>
