<svg width="25" height="24" viewBox="0 0 25 24" fill="none" xmlns="http://www.w3.org/2000/svg">
<path d="M17.5 2H7.5C6.96957 2 6.46086 2.21071 6.08579 2.58579C5.71071 2.96086 5.5 3.46957 5.5 4V20C5.5 20.5304 5.71071 21.0391 6.08579 21.4142C6.46086 21.7893 6.96957 22 7.5 22H17.5C18.0304 22 18.5391 21.7893 18.9142 21.4142C19.2893 21.0391 19.5 20.5304 19.5 20V4C19.5 3.46957 19.2893 2.96086 18.9142 2.58579C18.5391 2.21071 18.0304 2 17.5 2ZM13 19H12C11.8674 19 11.7402 18.9473 11.6464 18.8536C11.5527 18.7598 11.5 18.6326 11.5 18.5C11.5 18.3674 11.5527 18.2402 11.6464 18.1464C11.7402 18.0527 11.8674 18 12 18H13C13.1326 18 13.2598 18.0527 13.3536 18.1464C13.4473 18.2402 13.5 18.3674 13.5 18.5C13.5 18.6326 13.4473 18.7598 13.3536 18.8536C13.2598 18.9473 13.1326 19 13 19ZM17.5 16H7.5V6H17.5V16Z" fill="white"/>
</svg>
