<svg width="32" height="32" viewBox="0 0 32 32" fill="none" xmlns="http://www.w3.org/2000/svg">
<g clip-path="url(#clip0_21_13377)">
<path d="M21.3333 22.6667V21.3333H17.3333V17.3333H21.3333V20H24V22.6667H22.6667V25.3333H20V28H17.3333V24H20V22.6667H21.3333ZM28 28H22.6667V25.3333H25.3333V22.6667H28V28ZM4 4H14.6667V14.6667H4V4ZM17.3333 4H28V14.6667H17.3333V4ZM4 17.3333H14.6667V28H4V17.3333ZM24 17.3333H28V20H24V17.3333ZM8 8V10.6667H10.6667V8H8ZM8 21.3333V24H10.6667V21.3333H8ZM21.3333 8V10.6667H24V8H21.3333Z" fill="#09121F"/>
</g>
<defs>
<clipPath id="clip0_21_13377">
<rect width="32" height="32" fill="white"/>
</clipPath>
</defs>
</svg>
