<svg width="24" height="24" viewBox="0 0 24 24" fill="none" xmlns="http://www.w3.org/2000/svg">
<path d="M16.1373 11.9741C16.1373 11.4837 15.9487 11.0303 15.6203 10.7305L10.828 6.35155C10.4273 5.98475 9.91023 5.90645 9.44573 6.14755C8.94088 6.40513 8.62746 6.96976 8.62746 7.61784V8.87177C5.48389 9.16232 3 12.3481 3 16.2222V17.5915C3 18.2303 3.37441 18.7661 3.91117 18.8928C3.99093 18.9104 4.06881 18.9196 4.14576 18.9196C4.57554 18.9196 4.96591 18.6384 5.15921 18.1665C5.84329 16.5004 7.14482 15.4051 8.62746 15.2135V16.3314C8.62746 16.9795 8.94088 17.5431 9.44573 17.8027C9.91023 18.0418 10.4263 17.9655 10.827 17.5998L15.6203 13.2198C15.9487 12.9189 16.1373 12.4646 16.1373 11.9741Z" fill="white"/>
<path d="M20.3657 10.373L15.1886 5.27382C14.8011 4.89156 14.2099 4.92866 13.8627 5.35213C13.5164 5.77559 13.5493 6.4278 13.9349 6.80696L19.1129 11.9731L13.8477 17.2155C13.4639 17.5977 13.4348 18.2499 13.7829 18.6713C13.9678 18.8959 14.223 19.0093 14.4783 19.0093C14.7025 19.0093 14.9287 18.9207 15.1079 18.7424L20.3732 13.5001C20.7729 13.1023 21.0009 12.5326 21 11.935C20.9981 11.3384 20.7673 10.7686 20.3657 10.373Z" fill="white"/>
</svg>
