<svg width="20" height="20" viewBox="0 0 20 20" fill="none" xmlns="http://www.w3.org/2000/svg">
<path d="M3.12833 15.8333C3.02841 15.8333 2.92594 15.8225 2.82347 15.8008C2.14261 15.6567 1.66669 15.0568 1.66669 14.3419V13.2345C1.66669 10.0266 3.87779 7.36523 6.74519 6.92195V6.2762C6.74519 5.58879 7.12119 4.98803 7.72752 4.7089C8.29067 4.44893 8.94189 4.53475 9.42544 4.93137L13.7503 8.47343C14.144 8.79505 14.3693 9.27833 14.3693 9.79909C14.3693 10.3207 14.1432 10.804 13.7494 11.1256L9.42459 14.6677C8.94189 15.0643 8.29152 15.1484 7.72752 14.8901C7.12203 14.611 6.74519 14.0102 6.74519 13.3228V12.9237C5.75438 13.1928 4.90416 13.9302 4.424 14.9784C4.17842 15.5142 3.68047 15.8333 3.12833 15.8333ZM8.45326 6.3037L8.43887 7.68936C8.43887 8.15013 8.05948 8.52259 7.59203 8.52259C5.25898 8.52259 3.36037 10.6357 3.36037 13.2337V13.4386C4.33847 12.0022 5.88988 11.1431 7.59203 11.1431C8.05948 11.1431 8.43887 11.5155 8.43887 11.9763V13.3062L12.6671 9.84409C12.6798 9.82659 12.6798 9.77076 12.6654 9.75243L8.45326 6.3037Z" fill="#57D5FF"/>
<path d="M12.4478 15.4884C12.2175 15.4884 11.9871 15.3967 11.8203 15.2151C11.5061 14.8743 11.5324 14.3469 11.8787 14.0377L16.6304 9.79826L11.9575 5.62045C11.6094 5.31382 11.5806 4.78639 11.8923 4.44393C12.2048 4.10147 12.7391 4.07148 13.0889 4.38061L17.7609 8.50426C18.1233 8.82422 18.3317 9.28499 18.3334 9.76826C18.3342 10.2507 18.1284 10.7123 17.7677 11.0339L13.016 15.2734C12.8543 15.4167 12.6511 15.4884 12.4478 15.4884Z" fill="#57D5FF"/>
</svg>
