<svg width="24" height="24" viewBox="0 0 24 24" fill="none" xmlns="http://www.w3.org/2000/svg">
<path d="M15.3755 14.2858H6.83994L8.2948 12.8081C8.73474 12.3613 8.73474 11.639 8.2948 11.1922C7.85485 10.7453 7.14374 10.7453 6.7038 11.1922L3.32827 14.6207C3.22475 14.7258 3.14262 14.8527 3.08523 14.9921C2.97159 15.2721 2.97159 15.5864 3.08523 15.8652C3.14262 16.0046 3.22475 16.1315 3.32827 16.2366L6.7038 19.6651C6.92321 19.888 7.21125 20 7.4993 20C7.78734 20 8.07539 19.888 8.2948 19.6651C8.73474 19.2183 8.73474 18.496 8.2948 18.0492L6.83994 16.5715H15.3755C15.9966 16.5715 16.5007 16.0595 16.5007 15.4287C16.5007 14.7978 15.9966 14.2858 15.3755 14.2858Z" fill="white"/>
<path d="M20.9148 8.13507C20.8574 7.99564 20.7752 7.86879 20.6717 7.76365L17.2962 4.33514C16.8563 3.88829 16.1451 3.88829 15.7052 4.33514C15.2653 4.78199 15.2653 5.50426 15.7052 5.95111L17.1601 7.4288H8.62447C8.00338 7.4288 7.4993 7.94079 7.4993 8.57163C7.4993 9.20248 8.00338 9.71447 8.62447 9.71447H17.1601L15.7052 11.1922C15.2653 11.639 15.2653 12.3613 15.7052 12.8081C15.9246 13.031 16.2127 13.143 16.5007 13.143C16.7887 13.143 17.0768 13.031 17.2962 12.8081L20.6717 9.37962C20.7752 9.27448 20.8574 9.14762 20.9148 9.0082C21.0284 8.72934 21.0284 8.41392 20.9148 8.13507Z" fill="white"/>
</svg>
