<svg width="24" height="24" viewBox="0 0 24 24" fill="none" xmlns="http://www.w3.org/2000/svg">
<path d="M20.9309 9.77942C20.8523 9.52326 20.7061 9.29542 20.509 9.12204C20.3119 8.94866 20.072 8.83677 19.8167 8.79924L15.2708 8.1101L13.2377 3.81289C13.1238 3.5717 12.9474 3.36859 12.7286 3.22657C12.5097 3.08455 12.2571 3.00928 11.9994 3.00928C11.7416 3.00928 11.489 3.08455 11.2702 3.22657C11.0513 3.36859 10.8749 3.5717 10.761 3.81289L8.7279 8.1101L4.18205 8.79924C3.92717 8.83803 3.68775 8.95039 3.49084 9.12363C3.29393 9.29687 3.14737 9.52409 3.06772 9.77964C2.98806 10.0352 2.97848 10.3089 3.04005 10.5698C3.10162 10.8307 3.2319 11.0685 3.41616 11.2563L6.70652 14.6015L5.92983 19.324C5.88556 19.5891 5.91343 19.8618 6.0103 20.1111C6.10717 20.3605 6.26914 20.5765 6.47781 20.7346C6.68648 20.8928 6.93349 20.9867 7.19076 21.0057C7.44804 21.0247 7.70526 20.968 7.93321 20.8422L11.9994 18.6123L16.0655 20.8422C16.2936 20.9669 16.5505 21.0226 16.8073 21.0031C17.0641 20.9836 17.3106 20.8896 17.5189 20.7318C17.7272 20.5739 17.8891 20.3584 17.9863 20.1097C18.0835 19.8609 18.1121 19.5888 18.0689 19.324L17.2922 14.6015L20.5826 11.2553C20.7677 11.0684 20.8987 10.8307 20.9603 10.5696C21.0219 10.3086 21.0117 10.0347 20.9309 9.77942Z" fill="white"/>
</svg>
