<svg width="20" height="20" viewBox="0 0 20 20" fill="none" xmlns="http://www.w3.org/2000/svg">
<path d="M12.1217 4.12916C12.1842 4.38749 12.2009 4.66166 12.1626 4.94249L11.4776 9.97916M12.1217 4.12916C11.5951 1.95666 8.40508 1.95666 7.87841 4.12916M12.1217 4.12916C13.4276 2.78916 15.7717 4.12333 15.8334 5.79916M7.87841 4.12916C7.81591 4.38749 7.80008 4.66166 7.83758 4.94249L8.52258 9.97916M7.87841 4.12916C6.57258 2.78916 4.22841 4.12333 4.16675 5.79999C4.11008 7.33333 5.15841 9.39166 6.08508 10.8158M15.8334 5.79916C16.6667 5.93916 18.3334 6.71999 18.3334 8.72583C18.3334 10.5367 16.1609 12.45 14.0142 13.9708C13.5292 14.3142 13.2867 14.4858 13.1309 14.6108C12.6948 14.9509 12.3078 15.3497 11.9809 15.7958C11.8609 15.9542 11.7367 16.1417 11.4884 16.515L11.2951 16.8067C11.1532 17.0201 10.9607 17.1952 10.7347 17.3164C10.5088 17.4375 10.2564 17.5008 10.0001 17.5008C9.74373 17.5008 9.49135 17.4375 9.26542 17.3164C9.03948 17.1952 8.84699 17.0201 8.70508 16.8067L8.51175 16.515C8.35449 16.2708 8.19053 16.031 8.02008 15.7958C7.69268 15.3496 7.30512 14.9508 6.86841 14.6108C6.71341 14.4858 6.47091 14.3142 5.98591 13.9708C3.83925 12.45 1.66675 10.5375 1.66675 8.725C1.66675 6.71916 3.33341 5.93833 4.16675 5.79833M15.8334 5.79916C15.8901 7.33249 14.8417 9.38999 13.9151 10.8142" stroke="white" stroke-width="1.5" stroke-linecap="round" stroke-linejoin="round"/>
<path d="M15 13.3333L14.3675 16.495C14.3109 16.7782 14.1579 17.0332 13.9346 17.2164C13.7113 17.3996 13.4314 17.4998 13.1425 17.5H6.85833C6.56932 17.5 6.28924 17.3999 6.06574 17.2166C5.84224 17.0334 5.68915 16.7784 5.6325 16.495L5 13.3333" stroke="white" stroke-width="1.5" stroke-linecap="round" stroke-linejoin="round"/>
</svg>
