<svg width="24" height="24" viewBox="0 0 24 24" fill="none" xmlns="http://www.w3.org/2000/svg">
<path d="M16.1373 11.9648C16.1373 11.4744 15.9487 11.021 15.6203 10.7212L10.828 6.34228C10.4273 5.97548 9.91023 5.89717 9.44573 6.13827C8.94088 6.39586 8.62746 6.96048 8.62746 7.60856V8.86249C5.48389 9.15304 3 12.3389 3 16.2129V17.5823C3 18.2211 3.37441 18.7568 3.91117 18.8836C3.99093 18.9011 4.06881 18.9104 4.14576 18.9104C4.57554 18.9104 4.96591 18.6291 5.15921 18.1572C5.84329 16.4911 7.14482 15.3959 8.62746 15.2042V16.3221C8.62746 16.9702 8.94088 17.5338 9.44573 17.7935C9.91023 18.0325 10.4263 17.9563 10.827 17.5905L15.6203 13.2105C15.9487 12.9097 16.1373 12.4553 16.1373 11.9648Z" fill="#57D5FF"/>
<path d="M20.3657 10.3637L15.1886 5.26454C14.8011 4.88229 14.2099 4.91938 13.8627 5.34285C13.5164 5.76632 13.5493 6.41852 13.9349 6.79769L19.1129 11.9638L13.8477 17.2062C13.4639 17.5884 13.4348 18.2406 13.7829 18.662C13.9678 18.8867 14.223 19 14.4783 19C14.7025 19 14.9287 18.9114 15.1079 18.7331L20.3732 13.4908C20.7729 13.0931 21.0009 12.5233 21 11.9257C20.9981 11.3291 20.7673 10.7593 20.3657 10.3637Z" fill="#57D5FF"/>
</svg>
