<svg width="16" height="16" viewBox="0 0 16 16" fill="none" xmlns="http://www.w3.org/2000/svg">
<g clip-path="url(#clip0_3304_13193)">
<path d="M12.332 6.66668L15.2654 14H13.8287L13.028 12H10.3014L9.50203 14H8.06603L10.9987 6.66668H12.332ZM6.66536 1.33334V2.66668H10.6654V4.00001H9.35336C8.83911 5.54806 8.01835 6.97669 6.94003 8.20068C7.4209 8.62975 7.94248 9.01089 8.49736 9.33868L7.9967 10.5907C7.28038 10.1844 6.61043 9.70134 5.9987 9.15001C4.80775 10.2278 3.39739 11.0348 1.8647 11.5153L1.50736 10.2293C2.82059 9.81061 4.03071 9.11957 5.0587 8.20134C4.29782 7.33997 3.66407 6.37419 3.1767 5.33334H4.67003C5.0416 6.01925 5.48714 6.66241 5.9987 7.25134C6.8321 6.29074 7.4889 5.19021 7.9387 4.00068L1.33203 4.00001V2.66668H5.33203V1.33334H6.66536ZM11.6654 8.59001L10.834 10.6667H12.4954L11.6654 8.59001Z" fill="#57D5FF"/>
</g>
<defs>
<clipPath id="clip0_3304_13193">
<rect width="16" height="16" fill="white"/>
</clipPath>
</defs>
</svg>
