<svg width="14" height="14" viewBox="0 0 14 14" fill="none" xmlns="http://www.w3.org/2000/svg">
<path d="M7.0013 7.30706C7.9678 7.30706 8.7513 6.48232 8.7513 5.46496C8.7513 4.44759 7.9678 3.62286 7.0013 3.62286C6.0348 3.62286 5.2513 4.44759 5.2513 5.46496C5.2513 6.48232 6.0348 7.30706 7.0013 7.30706Z" fill="#111928"/>
<path d="M6.41797 9.14915H7.58463C8.20347 9.14915 8.79697 9.40793 9.23455 9.86854C9.67214 10.3292 9.91797 10.9539 9.91797 11.6053V12.8334H4.08464V11.6053C4.08464 10.9539 4.33047 10.3292 4.76805 9.86854C5.20564 9.40793 5.79913 9.14915 6.41797 9.14915Z" fill="#111928"/>
<path d="M8.7513 5.46496C8.75087 5.03083 8.6045 4.61087 8.33812 4.27945C8.07174 3.94802 7.70253 3.72652 7.29588 3.65417" fill="#111928"/>
<path d="M9.6263 1.16672C9.20719 1.16807 8.79621 1.28861 8.43682 1.51559C8.07744 1.74257 7.78299 2.06756 7.58463 2.45619C8.24303 2.5986 8.83463 2.97564 9.25968 3.52373C9.68473 4.07182 9.91723 4.75743 9.91797 5.46496C9.917 5.66299 9.89746 5.86044 9.85963 6.05443C10.4561 5.99468 11.0077 5.69506 11.3995 5.21795C11.7914 4.74084 11.9933 4.12302 11.9632 3.49314C11.9331 2.86325 11.6734 2.26985 11.2381 1.83649C10.8028 1.40313 10.2254 1.16323 9.6263 1.16672Z" fill="#111928"/>
<path d="M5.4648 8.06354C4.96692 7.73532 4.57348 7.2581 4.33488 6.69302H4.08464C3.31137 6.694 2.57004 7.01777 2.02326 7.59333C1.47648 8.16889 1.1689 8.94923 1.16797 9.76319V10.9913C1.16797 11.1541 1.22943 11.3103 1.33882 11.4254C1.44822 11.5406 1.59659 11.6053 1.7513 11.6053H2.91797C2.9193 10.8038 3.16859 10.0246 3.62811 9.38561C4.08763 8.74658 4.73238 8.28249 5.4648 8.06354Z" fill="#111928"/>
<path d="M9.91797 6.69302H9.66772C9.42913 7.2581 9.03568 7.73532 8.5378 8.06354C9.27023 8.28249 9.91498 8.74658 10.3745 9.38561C10.834 10.0246 11.0833 10.8038 11.0846 11.6053H12.2513C12.406 11.6053 12.5544 11.5406 12.6638 11.4254C12.7732 11.3103 12.8346 11.1541 12.8346 10.9913V9.76319C12.8337 8.94923 12.5261 8.16889 11.9793 7.59333C11.4326 7.01777 10.6912 6.694 9.91797 6.69302Z" fill="#111928"/>
<path d="M4.08464 5.46496C4.08538 4.75744 4.31787 4.07182 4.74292 3.52373C5.16797 2.97564 5.75958 2.59861 6.41797 2.4562C6.22752 2.08397 5.94876 1.76998 5.60882 1.5448C5.26889 1.31962 4.87936 1.19092 4.47815 1.17123C4.07694 1.15154 3.67772 1.24152 3.31935 1.43243C2.96099 1.62333 2.65568 1.90865 2.43315 2.26061C2.21062 2.61257 2.07845 3.01918 2.04951 3.44087C2.02056 3.86255 2.09583 4.28494 2.26798 4.66692C2.44013 5.0489 2.70331 5.37745 3.03188 5.6206C3.36046 5.86375 3.74324 6.01321 4.14297 6.05443C4.10514 5.86044 4.0856 5.66299 4.08464 5.46496Z" fill="#111928"/>
</svg>
