<svg width="14" height="16" viewBox="0 0 14 16" fill="none" xmlns="http://www.w3.org/2000/svg">
<path d="M13.2222 3.49702H10.1111V1.85959C10.1111 1.42532 9.94722 1.00884 9.6555 0.701759C9.36378 0.394682 8.96811 0.222168 8.55556 0.222168H5.44444C5.03189 0.222168 4.63622 0.394682 4.3445 0.701759C4.05278 1.00884 3.88889 1.42532 3.88889 1.85959V3.49702H0.777778C0.571498 3.49702 0.373667 3.58328 0.227806 3.73682C0.0819442 3.89036 0 4.0986 0 4.31574C0 4.53287 0.0819442 4.74111 0.227806 4.89465C0.373667 5.04819 0.571498 5.13445 0.777778 5.13445H1.55556V14.1403C1.55556 14.5746 1.71944 14.9911 2.01117 15.2981C2.30289 15.6052 2.69855 15.7777 3.11111 15.7777H10.8889C11.3014 15.7777 11.6971 15.6052 11.9888 15.2981C12.2806 14.9911 12.4444 14.5746 12.4444 14.1403V5.13445H13.2222C13.4285 5.13445 13.6263 5.04819 13.7722 4.89465C13.9181 4.74111 14 4.53287 14 4.31574C14 4.0986 13.9181 3.89036 13.7722 3.73682C13.6263 3.58328 13.4285 3.49702 13.2222 3.49702ZM5.44444 1.85959H8.55556V3.49702H5.44444V1.85959ZM6.22222 12.5029C6.22222 12.72 6.14028 12.9283 5.99442 13.0818C5.84855 13.2353 5.65072 13.3216 5.44444 13.3216C5.23816 13.3216 5.04033 13.2353 4.89447 13.0818C4.74861 12.9283 4.66667 12.72 4.66667 12.5029V6.77188C4.66667 6.55474 4.74861 6.3465 4.89447 6.19296C5.04033 6.03942 5.23816 5.95316 5.44444 5.95316C5.65072 5.95316 5.84855 6.03942 5.99442 6.19296C6.14028 6.3465 6.22222 6.55474 6.22222 6.77188V12.5029ZM9.33333 12.5029C9.33333 12.72 9.25139 12.9283 9.10553 13.0818C8.95967 13.2353 8.76184 13.3216 8.55556 13.3216C8.34928 13.3216 8.15145 13.2353 8.00558 13.0818C7.85972 12.9283 7.77778 12.72 7.77778 12.5029V6.77188C7.77778 6.55474 7.85972 6.3465 8.00558 6.19296C8.15145 6.03942 8.34928 5.95316 8.55556 5.95316C8.76184 5.95316 8.95967 6.03942 9.10553 6.19296C9.25139 6.3465 9.33333 6.55474 9.33333 6.77188V12.5029Z" fill="white"/>
</svg>
