<svg width="33" height="32" viewBox="0 0 33 32" fill="none" xmlns="http://www.w3.org/2000/svg">
<path d="M16.5364 0H16.4636C7.64712 0 0.5 7.14924 0.5 15.9683V16.0412C0.5 24.8602 7.64712 32.0094 16.4636 32.0094H16.5364C25.3529 32.0094 32.5 24.8602 32.5 16.0412V15.9683C32.5 7.14924 25.3529 0 16.5364 0Z" fill="#00B0F2"/>
<path d="M6.56088 15.4591C6.60573 15.4366 6.65059 15.4153 6.69432 15.3951C7.45443 15.043 8.22464 14.7133 8.99373 14.3836C9.03521 14.3836 9.1047 14.3354 9.14394 14.3197C9.20336 14.2939 9.26279 14.2692 9.32221 14.2434L9.66415 14.0965C9.89286 13.9989 10.1204 13.9014 10.3491 13.8038C10.8054 13.6087 11.2617 13.4135 11.718 13.2173C12.6306 12.827 13.5443 12.4356 14.4569 12.0454C15.3695 11.6551 16.2832 11.2637 17.1958 10.8735C18.1084 10.4832 19.0221 10.0918 19.9347 9.70156C20.8473 9.3113 21.761 8.91991 22.6736 8.52965C22.8765 8.44218 23.0962 8.31209 23.3137 8.27396C23.4965 8.24144 23.6747 8.17864 23.8586 8.14387C24.2073 8.07771 24.5918 8.05079 24.9259 8.19546C25.0414 8.24593 25.1479 8.31658 25.2364 8.40517C25.6602 8.82459 25.6008 9.51316 25.5111 10.103C24.8866 14.2143 24.2622 18.3266 23.6366 22.4378C23.5514 23.0019 23.4348 23.6209 22.9897 23.9776C22.613 24.2792 22.0771 24.3129 21.6119 24.185C21.1466 24.0561 20.7363 23.7858 20.3338 23.52C18.6645 22.4143 16.994 21.3085 15.3247 20.2028C14.9278 19.9404 14.4861 19.5972 14.4906 19.1206C14.4928 18.8335 14.6643 18.5778 14.8392 18.3502C16.2899 16.4572 18.3831 15.1563 19.9403 13.3507C20.16 13.0962 20.3327 12.6364 20.0311 12.4895C19.8517 12.402 19.6454 12.5209 19.4817 12.6341C17.4234 14.064 15.3661 15.495 13.3078 16.9248C12.6362 17.3913 11.9322 17.8713 11.1227 17.9857C10.3985 18.0889 9.66976 17.887 8.96907 17.6807C8.3816 17.5079 7.79524 17.3308 7.21114 17.148C6.90059 17.0515 6.57995 16.9472 6.34003 16.7285C6.10011 16.5099 5.96223 16.142 6.10685 15.8505C6.19766 15.6677 6.37368 15.5521 6.55867 15.4579L6.56088 15.4591Z" fill="#FEFFFC"/>
</svg>
