<svg width="24" height="24" viewBox="0 0 24 24" fill="none" xmlns="http://www.w3.org/2000/svg">
<path d="M16.707 6.41298L12.707 2.31059C12.6141 2.21508 12.5038 2.1393 12.3823 2.08759C12.2608 2.03589 12.1305 2.00928 11.999 2.00928C11.8675 2.00928 11.7372 2.03589 11.6157 2.08759C11.4942 2.1393 11.3839 2.21508 11.291 2.31059L7.291 6.41298C7.10349 6.60556 6.99826 6.86665 6.99844 7.13881C6.99863 7.41097 7.10423 7.6719 7.292 7.86421C7.47977 8.05652 7.73434 8.16445 7.99971 8.16425C8.26507 8.16406 8.51949 8.05576 8.707 7.86318L11 5.51148V14.3173C11 14.5893 11.1054 14.8502 11.2929 15.0425C11.4804 15.2348 11.7348 15.3429 12 15.3429C12.2652 15.3429 12.5196 15.2348 12.7071 15.0425C12.8946 14.8502 13 14.5893 13 14.3173V5.51148L15.293 7.86318C15.4816 8.05 15.7342 8.15338 15.9964 8.15104C16.2586 8.1487 16.5094 8.04084 16.6948 7.85069C16.8802 7.66053 16.9854 7.4033 16.9877 7.13439C16.99 6.86548 16.8892 6.60641 16.707 6.41298Z" fill="white"/>
<path d="M20 13.8045H15V14.3173C15 15.1333 14.6839 15.9159 14.1213 16.4929C13.5587 17.0699 12.7956 17.3941 12 17.3941C11.2044 17.3941 10.4413 17.0699 9.87868 16.4929C9.31607 15.9159 9 15.1333 9 14.3173V13.8045H4C3.46957 13.8045 2.96086 14.0206 2.58579 14.4053C2.21071 14.7899 2 15.3117 2 15.8557V19.9581C2 20.5021 2.21071 21.0238 2.58579 21.4085C2.96086 21.7932 3.46957 22.0093 4 22.0093H20C20.5304 22.0093 21.0391 21.7932 21.4142 21.4085C21.7893 21.0238 22 20.5021 22 19.9581V15.8557C22 15.3117 21.7893 14.7899 21.4142 14.4053C21.0391 14.0206 20.5304 13.8045 20 13.8045ZM17.5 19.9581C17.2033 19.9581 16.9133 19.8679 16.6666 19.6988C16.42 19.5298 16.2277 19.2895 16.1142 19.0084C16.0007 18.7273 15.9709 18.418 16.0288 18.1196C16.0867 17.8211 16.2296 17.547 16.4393 17.3319C16.6491 17.1167 16.9164 16.9702 17.2074 16.9108C17.4983 16.8515 17.7999 16.8819 18.074 16.9984C18.3481 17.1148 18.5824 17.312 18.7472 17.565C18.912 17.818 19 18.1154 19 18.4197C19 18.8277 18.842 19.219 18.5607 19.5075C18.2794 19.796 17.8978 19.9581 17.5 19.9581Z" fill="white"/>
</svg>
