<svg width="18" height="18" viewBox="0 0 18 18" fill="none" xmlns="http://www.w3.org/2000/svg">
<path d="M9 1.5C7.51664 1.5 6.0666 1.93987 4.83323 2.76398C3.59986 3.58809 2.63856 4.75943 2.07091 6.12987C1.50325 7.50032 1.35472 9.00832 1.64411 10.4632C1.9335 11.918 2.64781 13.2544 3.6967 14.3033C4.7456 15.3522 6.08197 16.0665 7.53683 16.3559C8.99168 16.6453 10.4997 16.4968 11.8701 15.9291C13.2406 15.3614 14.4119 14.4001 15.236 13.1668C16.0601 11.9334 16.5 10.4834 16.5 9C16.5 8.01509 16.306 7.03982 15.9291 6.12987C15.5522 5.21993 14.9997 4.39314 14.3033 3.6967C13.6069 3.00026 12.7801 2.44781 11.8701 2.0709C10.9602 1.69399 9.98492 1.5 9 1.5V1.5ZM7.71675 14.8447C6.8988 14.6579 6.12921 14.3014 5.45781 13.7982C4.78641 13.295 4.22816 12.6565 3.81922 11.9239C3.41028 11.1912 3.15976 10.3809 3.08389 9.54533C3.00801 8.70975 3.10847 7.86754 3.37875 7.07325L3.56775 7.08825C3.96758 7.27898 4.32148 7.55384 4.60523 7.89402C4.88897 8.23421 5.09587 8.63169 5.21175 9.05925C5.3364 9.55308 5.57587 10.0105 5.91067 10.3943C6.24548 10.7781 6.66617 11.0775 7.1385 11.268C8.0445 11.6858 8.23425 12.8572 7.71675 14.8447ZM10.5593 7.875C10.5592 7.81509 10.5519 7.75541 10.5375 7.69725C10.4018 7.08236 10.1327 6.50477 9.74918 6.00531C9.36571 5.50585 8.87723 5.09669 8.31825 4.80675C7.662 4.3905 7.25475 4.13175 7.14525 3.3135C8.31292 2.92008 9.57349 2.89622 10.7552 3.24517C11.9369 3.59411 12.9823 4.2989 13.749 5.2635C12.654 5.42775 12.0593 7.02975 12.0593 7.87425C11.9792 7.99808 11.8674 8.09819 11.7354 8.16414C11.6035 8.23009 11.4564 8.25948 11.3093 8.24925C11.1622 8.25956 11.0151 8.23029 10.8832 8.16447C10.7513 8.09865 10.6394 7.9987 10.5593 7.875ZM11.8433 14.2297L11.313 12.6405C11.3386 12.2794 11.4939 11.9398 11.7503 11.6842C12.0067 11.4287 12.3468 11.2744 12.708 11.25L14.3123 11.7383C13.7578 12.7976 12.8975 13.6657 11.8433 14.2297V14.2297Z" fill="#1F2A37"/>
</svg>
