<svg width="33" height="32" viewBox="0 0 33 32" fill="none" xmlns="http://www.w3.org/2000/svg">
<path d="M16.5364 0H16.4636C7.64713 0 0.5 7.14923 0.5 15.9683V16.0412C0.5 24.8602 7.64713 32.0094 16.4636 32.0094H16.5364C25.3529 32.0094 32.5 24.8602 32.5 16.0412V15.9683C32.5 7.14923 25.3529 0 16.5364 0Z" fill="#00E510"/>
<path d="M19.6181 20.6862C15.5227 20.6862 12.1907 17.3521 12.1896 13.2555C12.1907 12.217 13.036 11.3726 14.0719 11.3726C14.1784 11.3726 14.2838 11.3815 14.3847 11.3995C14.6067 11.4365 14.8175 11.5116 15.0114 11.6249C15.0395 11.6417 15.0585 11.6686 15.063 11.7L15.4957 14.4285C15.5013 14.461 15.4913 14.4924 15.47 14.516C15.2312 14.7806 14.9262 14.9713 14.5865 15.0666L14.4228 15.1126L14.4845 15.2707C15.0428 16.6927 16.1796 17.8287 17.6023 18.3894L17.7604 18.4522L17.8064 18.2885C17.9017 17.9487 18.0922 17.6437 18.3568 17.4048C18.3759 17.3869 18.4017 17.3779 18.4275 17.3779C18.4331 17.3779 18.4387 17.3779 18.4454 17.379L21.1731 17.8119C21.2056 17.8175 21.2325 17.8354 21.2493 17.8635C21.3614 18.0575 21.4365 18.2694 21.4747 18.4915C21.4926 18.5902 21.5004 18.6945 21.5004 18.8033C21.5004 19.8406 20.6562 20.685 19.6181 20.6862Z" fill="#FDFDFD"/>
<path d="M26.8809 15.106C26.66 12.6097 25.5165 10.2939 23.661 8.58594C21.7944 6.86789 19.3727 5.92139 16.8401 5.92139C11.2817 5.92139 6.75909 10.4453 6.75909 16.0054C6.75909 17.8715 7.27367 19.6894 8.24792 21.2729L6.0752 26.0839L13.0317 25.3426C14.2414 25.8383 15.5217 26.0895 16.839 26.0895C17.1854 26.0895 17.5409 26.0715 17.8974 26.0345C18.2113 26.0009 18.5286 25.9515 18.8402 25.8887C23.4951 24.9478 26.8932 20.8153 26.9201 16.0593V16.0054C26.9201 15.7026 26.9066 15.3998 26.8797 15.106H26.8809ZM13.2997 23.2309L9.45089 23.6413L10.6 21.0945L10.3702 20.7861C10.3534 20.7637 10.3366 20.7413 10.3175 20.7155C9.31971 19.3372 8.79278 17.7089 8.79278 16.0065C8.79278 11.5679 12.4028 7.95681 16.8401 7.95681C20.9972 7.95681 24.5209 11.2012 24.8606 15.3426C24.8785 15.5647 24.8886 15.7879 24.8886 16.0077C24.8886 16.0705 24.8875 16.1321 24.8864 16.1983C24.8012 19.9114 22.208 23.0649 18.5801 23.8679C18.3032 23.9296 18.0196 23.9767 17.737 24.0069C17.4433 24.0406 17.1417 24.0574 16.8424 24.0574C15.7762 24.0574 14.7403 23.8511 13.7616 23.4428C13.6528 23.3991 13.5463 23.352 13.4465 23.3038L13.3008 23.2331L13.2997 23.2309Z" fill="#FDFDFD"/>
</svg>
