<svg width="87" height="13" viewBox="0 0 87 13" fill="none" xmlns="http://www.w3.org/2000/svg">
<path d="M0.142484 10V1.6H4.24648C5.30248 1.6 6.09448 1.8 6.62248 2.2C7.15848 2.6 7.42649 3.128 7.42649 3.784C7.42649 4.224 7.31849 4.608 7.10248 4.936C6.88648 5.256 6.59048 5.504 6.21448 5.68C5.83849 5.856 5.40648 5.944 4.91848 5.944L5.14648 5.452C5.67448 5.452 6.14248 5.54 6.55048 5.716C6.95848 5.884 7.27448 6.136 7.49848 6.472C7.73048 6.808 7.84648 7.22 7.84648 7.708C7.84648 8.428 7.56248 8.992 6.99448 9.4C6.42648 9.8 5.59048 10 4.48648 10H0.142484ZM2.07448 8.536H4.34248C4.84648 8.536 5.22648 8.456 5.48248 8.296C5.74648 8.128 5.87848 7.864 5.87848 7.504C5.87848 7.152 5.74648 6.892 5.48248 6.724C5.22648 6.548 4.84648 6.46 4.34248 6.46H1.93048V5.044H4.00648C4.47848 5.044 4.83848 4.964 5.08648 4.804C5.34248 4.636 5.47048 4.384 5.47048 4.048C5.47048 3.72 5.34248 3.476 5.08648 3.316C4.83848 3.148 4.47848 3.064 4.00648 3.064H2.07448V8.536ZM12.6583 10.096C11.9703 10.096 11.3583 9.952 10.8223 9.664C10.2943 9.376 9.87427 8.984 9.56227 8.488C9.25827 7.984 9.10627 7.412 9.10627 6.772C9.10627 6.124 9.25827 5.552 9.56227 5.056C9.87427 4.552 10.2943 4.16 10.8223 3.88C11.3583 3.592 11.9703 3.448 12.6583 3.448C13.3383 3.448 13.9463 3.592 14.4823 3.88C15.0183 4.16 15.4383 4.548 15.7423 5.044C16.0463 5.54 16.1983 6.116 16.1983 6.772C16.1983 7.412 16.0463 7.984 15.7423 8.488C15.4383 8.984 15.0183 9.376 14.4823 9.664C13.9463 9.952 13.3383 10.096 12.6583 10.096ZM12.6583 8.56C12.9703 8.56 13.2503 8.488 13.4983 8.344C13.7463 8.2 13.9423 7.996 14.0863 7.732C14.2303 7.46 14.3023 7.14 14.3023 6.772C14.3023 6.396 14.2303 6.076 14.0863 5.812C13.9423 5.548 13.7463 5.344 13.4983 5.2C13.2503 5.056 12.9703 4.984 12.6583 4.984C12.3463 4.984 12.0663 5.056 11.8183 5.2C11.5703 5.344 11.3703 5.548 11.2183 5.812C11.0743 6.076 11.0023 6.396 11.0023 6.772C11.0023 7.14 11.0743 7.46 11.2183 7.732C11.3703 7.996 11.5703 8.2 11.8183 8.344C12.0663 8.488 12.3463 8.56 12.6583 8.56ZM20.9215 10.096C20.2335 10.096 19.6215 9.952 19.0855 9.664C18.5575 9.376 18.1375 8.984 17.8255 8.488C17.5215 7.984 17.3695 7.412 17.3695 6.772C17.3695 6.124 17.5215 5.552 17.8255 5.056C18.1375 4.552 18.5575 4.16 19.0855 3.88C19.6215 3.592 20.2335 3.448 20.9215 3.448C21.6015 3.448 22.2095 3.592 22.7455 3.88C23.2815 4.16 23.7015 4.548 24.0055 5.044C24.3095 5.54 24.4615 6.116 24.4615 6.772C24.4615 7.412 24.3095 7.984 24.0055 8.488C23.7015 8.984 23.2815 9.376 22.7455 9.664C22.2095 9.952 21.6015 10.096 20.9215 10.096ZM20.9215 8.56C21.2335 8.56 21.5135 8.488 21.7615 8.344C22.0095 8.2 22.2055 7.996 22.3495 7.732C22.4935 7.46 22.5655 7.14 22.5655 6.772C22.5655 6.396 22.4935 6.076 22.3495 5.812C22.2055 5.548 22.0095 5.344 21.7615 5.2C21.5135 5.056 21.2335 4.984 20.9215 4.984C20.6095 4.984 20.3295 5.056 20.0815 5.2C19.8335 5.344 19.6335 5.548 19.4815 5.812C19.3375 6.076 19.2655 6.396 19.2655 6.772C19.2655 7.14 19.3375 7.46 19.4815 7.732C19.6335 7.996 19.8335 8.2 20.0815 8.344C20.3295 8.488 20.6095 8.56 20.9215 8.56ZM27.6608 8.68L27.7088 6.4L30.7208 3.544H32.9528L30.0608 6.484L29.0888 7.276L27.6608 8.68ZM26.1128 10V1.096H27.9848V10H26.1128ZM30.9248 10L28.7408 7.288L29.9168 5.836L33.1928 10H30.9248ZM34.4347 10V3.544H36.3067V10H34.4347ZM35.3707 2.644C35.0267 2.644 34.7467 2.544 34.5307 2.344C34.3147 2.144 34.2067 1.896 34.2067 1.6C34.2067 1.304 34.3147 1.056 34.5307 0.856C34.7467 0.655999 35.0267 0.555999 35.3707 0.555999C35.7147 0.555999 35.9947 0.651999 36.2107 0.844C36.4267 1.028 36.5347 1.268 36.5347 1.564C36.5347 1.876 36.4267 2.136 36.2107 2.344C36.0027 2.544 35.7227 2.644 35.3707 2.644ZM42.3681 3.448C42.8801 3.448 43.3361 3.552 43.7361 3.76C44.1441 3.96 44.4641 4.272 44.6961 4.696C44.9281 5.112 45.0441 5.648 45.0441 6.304V10H43.1721V6.592C43.1721 6.072 43.0561 5.688 42.8241 5.44C42.6001 5.192 42.2801 5.068 41.8641 5.068C41.5681 5.068 41.3001 5.132 41.0601 5.26C40.8281 5.38 40.6441 5.568 40.5081 5.824C40.3801 6.08 40.3161 6.408 40.3161 6.808V10H38.4441V3.544H40.2321V5.332L39.8961 4.792C40.1281 4.36 40.4601 4.028 40.8921 3.796C41.3241 3.564 41.8161 3.448 42.3681 3.448ZM50.2238 12.424C49.6158 12.424 49.0278 12.348 48.4598 12.196C47.8998 12.052 47.4318 11.832 47.0558 11.536L47.7998 10.192C48.0718 10.416 48.4158 10.592 48.8318 10.72C49.2558 10.856 49.6718 10.924 50.0798 10.924C50.7438 10.924 51.2238 10.776 51.5198 10.48C51.8238 10.184 51.9758 9.744 51.9758 9.16V8.188L52.0958 6.568L52.0718 4.936V3.544H53.8478V8.92C53.8478 10.12 53.5358 11.004 52.9118 11.572C52.2878 12.14 51.3918 12.424 50.2238 12.424ZM49.9358 9.688C49.3358 9.688 48.7918 9.56 48.3038 9.304C47.8238 9.04 47.4358 8.676 47.1398 8.212C46.8518 7.74 46.7078 7.192 46.7078 6.568C46.7078 5.936 46.8518 5.388 47.1398 4.924C47.4358 4.452 47.8238 4.088 48.3038 3.832C48.7918 3.576 49.3358 3.448 49.9358 3.448C50.4798 3.448 50.9598 3.56 51.3758 3.784C51.7918 4 52.1158 4.34 52.3478 4.804C52.5798 5.26 52.6958 5.848 52.6958 6.568C52.6958 7.28 52.5798 7.868 52.3478 8.332C52.1158 8.788 51.7918 9.128 51.3758 9.352C50.9598 9.576 50.4798 9.688 49.9358 9.688ZM50.3078 8.152C50.6358 8.152 50.9278 8.088 51.1838 7.96C51.4398 7.824 51.6398 7.636 51.7838 7.396C51.9278 7.156 51.9998 6.88 51.9998 6.568C51.9998 6.248 51.9278 5.972 51.7838 5.74C51.6398 5.5 51.4398 5.316 51.1838 5.188C50.9278 5.052 50.6358 4.984 50.3078 4.984C49.9798 4.984 49.6878 5.052 49.4318 5.188C49.1758 5.316 48.9718 5.5 48.8198 5.74C48.6758 5.972 48.6038 6.248 48.6038 6.568C48.6038 6.88 48.6758 7.156 48.8198 7.396C48.9718 7.636 49.1758 7.824 49.4318 7.96C49.6878 8.088 49.9798 8.152 50.3078 8.152Z" fill="white"/>
<path d="M56.6982 10.096C56.3782 10.096 56.1022 9.988 55.8702 9.772C55.6462 9.548 55.5342 9.264 55.5342 8.92C55.5342 8.576 55.6462 8.3 55.8702 8.092C56.1022 7.876 56.3782 7.768 56.6982 7.768C57.0262 7.768 57.3022 7.876 57.5262 8.092C57.7502 8.3 57.8622 8.576 57.8622 8.92C57.8622 9.264 57.7502 9.548 57.5262 9.772C57.3022 9.988 57.0262 10.096 56.6982 10.096ZM62.5805 10.096C61.8845 10.096 61.2645 9.956 60.7205 9.676C60.1765 9.388 59.7485 8.992 59.4365 8.488C59.1325 7.984 58.9805 7.412 58.9805 6.772C58.9805 6.124 59.1325 5.552 59.4365 5.056C59.7485 4.552 60.1765 4.16 60.7205 3.88C61.2645 3.592 61.8845 3.448 62.5805 3.448C63.2605 3.448 63.8525 3.592 64.3565 3.88C64.8605 4.16 65.2325 4.564 65.4725 5.092L64.0205 5.872C63.8525 5.568 63.6405 5.344 63.3845 5.2C63.1365 5.056 62.8645 4.984 62.5685 4.984C62.2485 4.984 61.9605 5.056 61.7045 5.2C61.4485 5.344 61.2445 5.548 61.0925 5.812C60.9485 6.076 60.8765 6.396 60.8765 6.772C60.8765 7.148 60.9485 7.468 61.0925 7.732C61.2445 7.996 61.4485 8.2 61.7045 8.344C61.9605 8.488 62.2485 8.56 62.5685 8.56C62.8645 8.56 63.1365 8.492 63.3845 8.356C63.6405 8.212 63.8525 7.984 64.0205 7.672L65.4725 8.464C65.2325 8.984 64.8605 9.388 64.3565 9.676C63.8525 9.956 63.2605 10.096 62.5805 10.096ZM69.9403 10.096C69.2523 10.096 68.6403 9.952 68.1043 9.664C67.5763 9.376 67.1563 8.984 66.8443 8.488C66.5403 7.984 66.3883 7.412 66.3883 6.772C66.3883 6.124 66.5403 5.552 66.8443 5.056C67.1563 4.552 67.5763 4.16 68.1043 3.88C68.6403 3.592 69.2523 3.448 69.9403 3.448C70.6203 3.448 71.2283 3.592 71.7643 3.88C72.3003 4.16 72.7203 4.548 73.0243 5.044C73.3283 5.54 73.4803 6.116 73.4803 6.772C73.4803 7.412 73.3283 7.984 73.0243 8.488C72.7203 8.984 72.3003 9.376 71.7643 9.664C71.2283 9.952 70.6203 10.096 69.9403 10.096ZM69.9403 8.56C70.2523 8.56 70.5323 8.488 70.7803 8.344C71.0283 8.2 71.2243 7.996 71.3683 7.732C71.5123 7.46 71.5843 7.14 71.5843 6.772C71.5843 6.396 71.5123 6.076 71.3683 5.812C71.2243 5.548 71.0283 5.344 70.7803 5.2C70.5323 5.056 70.2523 4.984 69.9403 4.984C69.6283 4.984 69.3483 5.056 69.1003 5.2C68.8523 5.344 68.6523 5.548 68.5003 5.812C68.3563 6.076 68.2843 6.396 68.2843 6.772C68.2843 7.14 68.3563 7.46 68.5003 7.732C68.6523 7.996 68.8523 8.2 69.1003 8.344C69.3483 8.488 69.6283 8.56 69.9403 8.56ZM83.3996 3.448C83.9116 3.448 84.3636 3.552 84.7556 3.76C85.1556 3.96 85.4676 4.272 85.6916 4.696C85.9236 5.112 86.0396 5.648 86.0396 6.304V10H84.1676V6.592C84.1676 6.072 84.0596 5.688 83.8436 5.44C83.6276 5.192 83.3236 5.068 82.9316 5.068C82.6596 5.068 82.4156 5.132 82.1996 5.26C81.9836 5.38 81.8156 5.564 81.6956 5.812C81.5756 6.06 81.5156 6.376 81.5156 6.76V10H79.6436V6.592C79.6436 6.072 79.5356 5.688 79.3196 5.44C79.1116 5.192 78.8116 5.068 78.4196 5.068C78.1476 5.068 77.9036 5.132 77.6876 5.26C77.4716 5.38 77.3036 5.564 77.1836 5.812C77.0636 6.06 77.0036 6.376 77.0036 6.76V10H75.1316V3.544H76.9196V5.308L76.5836 4.792C76.8076 4.352 77.1236 4.02 77.5316 3.796C77.9476 3.564 78.4196 3.448 78.9476 3.448C79.5396 3.448 80.0556 3.6 80.4956 3.904C80.9436 4.2 81.2396 4.656 81.3836 5.272L80.7236 5.092C80.9396 4.588 81.2836 4.188 81.7556 3.892C82.2356 3.596 82.7836 3.448 83.3996 3.448Z" fill="#499FDD"/>
</svg>
