<svg width="33" height="13" viewBox="0 0 33 13" fill="none" xmlns="http://www.w3.org/2000/svg">
<path d="M6.09672 1.19312H8.12053V10.3943H6.43824L2.02381 4.80789V10.3943H0V1.19312H1.69494L6.09672 6.77958V1.19312Z" fill="#57D5FF"/>
<path d="M10.7794 2.33669C10.0457 2.33669 9.55243 1.8372 9.55243 1.19311C9.55243 0.549029 10.0457 0.0495343 10.7794 0.0495343C11.513 0.0495343 12.0063 0.52274 12.0063 1.15368C12.0063 1.8372 11.513 2.33669 10.7794 2.33669ZM9.79276 10.3943V3.32254H11.766V10.3943H9.79276Z" fill="#57D5FF"/>
<path d="M17.852 3.21738C19.4584 3.21738 20.6727 4.19008 20.6727 6.34579V10.3943H18.6995V6.66126C18.6995 5.51768 18.1936 4.9919 17.3208 4.9919C16.3721 4.9919 15.6891 5.59655 15.6891 6.89787V10.3943H13.7159V3.32254H15.6005V4.15065C16.1318 3.546 16.9287 3.21738 17.852 3.21738Z" fill="#57D5FF"/>
<path d="M23.6551 2.28718C22.9214 2.28718 22.4281 1.78769 22.4281 1.1436C22.4281 0.499516 22.9214 2.12193e-05 23.6551 2.12193e-05C24.3887 2.12193e-05 24.882 0.473227 24.882 1.10417C24.882 1.78769 24.3887 2.28718 23.6551 2.28718ZM22.074 13C21.4668 13 20.8723 12.8817 20.4929 12.6057L21.0241 11.1203C21.2392 11.2781 21.5301 11.3701 21.8589 11.3701C22.3523 11.3701 22.6685 11.0415 22.6685 10.3448V3.27302H24.6417V10.3317C24.6417 11.9616 23.7183 13 22.074 13Z" fill="#57D5FF"/>
<path d="M29.3219 3.11225C31.3963 3.11225 32.5979 4.11123 32.5979 6.2538V10.2892H30.7512V9.4085C30.3844 10.0526 29.6761 10.3943 28.6768 10.3943C27.0831 10.3943 26.1344 9.47423 26.1344 8.25178C26.1344 7.00304 26.9819 6.1355 29.0563 6.1355H30.6248C30.6248 5.25481 30.1188 4.74218 29.0563 4.74218C28.3353 4.74218 27.589 4.99192 27.0957 5.3994L26.3874 3.96664C27.1337 3.41457 28.2341 3.11225 29.3219 3.11225ZM29.1701 9.01417C29.8279 9.01417 30.3971 8.6987 30.6248 8.05461V7.33166H29.2713C28.348 7.33166 28.057 7.68656 28.057 8.15977C28.057 8.67241 28.4745 9.01417 29.1701 9.01417Z" fill="#57D5FF"/>
<path d="M9.55243 1.19311C9.55243 1.8372 10.0457 2.33669 10.7794 2.33669C11.513 2.33669 12.0063 1.8372 12.0063 1.15368C12.0063 0.52274 11.513 0.0495343 10.7794 0.0495343C10.0457 0.0495343 9.55243 0.549029 9.55243 1.19311Z" fill="#FFCC00"/>
<path d="M22.4281 1.1436C22.4281 1.78769 22.9214 2.28718 23.6551 2.28718C24.3887 2.28718 24.882 1.78769 24.882 1.10417C24.882 0.473227 24.3887 2.12193e-05 23.6551 2.12193e-05C22.9214 2.12193e-05 22.4281 0.499516 22.4281 1.1436Z" fill="#FFCC00"/>
</svg>
